<?xml version="1.0" standalone="no"?>
<!DOCTYPE svg PUBLIC "-//W3C//DTD SVG 1.0//EN" "http://www.w3.org/TR/2001/REC-SVG-20010904/DTD/svg10.dtd">
<svg xmlns="http://www.w3.org/2000/svg" xmlns:xlink="http://www.w3.org/1999/xlink" id="body_1" width="872" height="743">

<defs>
    <linearGradient transform="matrix(1 0 0 1 0 0)"  id="1" x1="1.093" y1="-0.519" x2="0.264" y2="0.906">
        <stop stop-color="#6BBC61" offset="0%"/>
        <stop stop-color="#A7DF63" offset="100%"/>
    </linearGradient>
    <linearGradient transform="matrix(1 0 0 1 0 0)"  id="229" x1="0.5" y1="-1.89" x2="0.5" y2="1.431">
        <stop stop-color="#369E5F" offset="0%"/>
        <stop stop-color="#369E5F" offset="100%"/>
    </linearGradient>
    <linearGradient transform="matrix(1 0 0 1 0 0)"  id="454" x1="0.351" y1="0.347" x2="1.344" y2="0.87">
        <stop stop-color="#DBE42C" offset="0%"/>
        <stop stop-color="#6AD419" offset="100%"/>
    </linearGradient>
    <linearGradient transform="matrix(1 0 0 1 0 0)"  id="682" x1="0.366" y1="0.392" x2="1.797" y2="0.767">
        <stop stop-color="#FFFFFF" offset="0%"/>
        <stop stop-color="#FFFFFF" offset="100%"/>
    </linearGradient>
    <linearGradient transform="matrix(1 0 0 1 0 0)"  id="911" x1="0.213" y1="0.275" x2="0.91" y2="0.745">
        <stop stop-color="#DBE42C" offset="0%"/>
        <stop stop-color="#6AD419" offset="100%"/>
    </linearGradient>
    <linearGradient transform="matrix(1 0 0 1 0 0)"  id="1139" x1="-24.477" y1="0.878" x2="-24.955" y2="0.374">
        <stop stop-color="#8F5138" offset="0%"/>
        <stop stop-color="#BA6D4D" offset="100%"/>
    </linearGradient>
    <linearGradient transform="matrix(1 0 0 1 0 0)"  id="1373" x1="0.464" y1="0.234" x2="0.91" y2="1.789">
        <stop stop-color="#6BBC61" offset="0%"/>
        <stop stop-color="#A7DF63" offset="100%"/>
    </linearGradient>
    <linearGradient transform="matrix(1 0 0 1 0 0)"  id="1602" x1="0.356" y1="1.355" x2="0.553" y2="0.1">
        <stop stop-color="#C7283A" offset="0%"/>
        <stop stop-color="#EF4B4B" offset="100%"/>
    </linearGradient>
    <linearGradient transform="matrix(1 0 0 1 0 0)"  id="1830" x1="0.08" y1="0.37" x2="1.839" y2="1.206">
        <stop stop-color="#FFFFFF" offset="0%"/>
        <stop stop-color="#FFFFFF" offset="100%"/>
    </linearGradient>
    <linearGradient transform="matrix(1 0 0 1 0 0)"  id="2058" x1="0.851" y1="0.878" x2="0.373" y2="0.374">
        <stop stop-color="#8F5138" offset="0%"/>
        <stop stop-color="#BA6D4D" offset="100%"/>
    </linearGradient>
    <linearGradient transform="matrix(1 0 0 1 0 0)"  id="2288" x1="0.5" y1="0.059" x2="0.5" y2="0.954">
        <stop stop-color="#FFB965" offset="0%"/>
        <stop stop-color="#FF8A5F" offset="100%"/>
    </linearGradient>
    <linearGradient transform="matrix(1 0 0 1 0 0)"  id="2514" x1="0.575" y1="0.257" x2="0.371" y2="0.916">
        <stop stop-color="#FFFFFF" offset="0%"/>
        <stop stop-color="#EAF5FF" offset="100%"/>
    </linearGradient>
    <linearGradient transform="matrix(1 0 0 1 0 0)"  id="2744" x1="0.5" y1="2.274" x2="0.5" y2="-0.4">
        <stop stop-color="#1D164D" offset="0%"/>
        <stop stop-color="#4A4975" offset="100%"/>
    </linearGradient>
    <linearGradient transform="matrix(1 0 0 1 0 0)"  id="2969" x1="0.5" y1="-0.318" x2="0.5" y2="1.939">
        <stop stop-color="#FFB965" offset="0%"/>
        <stop stop-color="#FF8A5F" offset="100%"/>
    </linearGradient>
    <linearGradient transform="matrix(1 0 0 1 0 0)"  id="3196" x1="0.201" y1="0.016" x2="0.778" y2="0.95">
        <stop stop-color="#ACD4F3" offset="0%"/>
        <stop stop-color="#4099F1" offset="100%"/>
    </linearGradient>
    <linearGradient transform="matrix(1 0 0 1 0 0)"  id="3425" x1="2.259" y1="0.5" x2="0.112" y2="0.5">
        <stop stop-color="#ACD4F3" offset="0%"/>
        <stop stop-color="#4099F1" offset="100%"/>
    </linearGradient>
    <linearGradient transform="matrix(1 0 0 1 0 0)"  id="3651" x1="0.595" y1="-0.574" x2="0.418" y2="1.433">
        <stop stop-color="#ACD4F3" offset="0%"/>
        <stop stop-color="#4099F1" offset="100%"/>
    </linearGradient>
    <linearGradient transform="matrix(1 0 0 1 0 0)"  id="3882" x1="-0.704" y1="1.346" x2="0.321" y2="-0.1">
        <stop stop-color="#C7283A" offset="0%"/>
        <stop stop-color="#EF4B4B" offset="100%"/>
    </linearGradient>
    <linearGradient transform="matrix(1 0 0 1 0 0)"  id="4112" x1="-0.491" y1="0.402" x2="2.047" y2="0.227">
        <stop stop-color="#FFFFFF" offset="0%"/>
        <stop stop-color="#FFFFFF" offset="100%"/>
    </linearGradient>
    <linearGradient transform="matrix(1 0 0 1 0 0)"  id="4343" x1="0.306" y1="-0.358" x2="0.397" y2="-0.915">
        <stop stop-color="#6BBC61" offset="0%"/>
        <stop stop-color="#A7DF63" offset="100%"/>
    </linearGradient>
    <linearGradient transform="matrix(1 0 0 1 0 0)"  id="4575" x1="-0.815" y1="0.5" x2="0.878" y2="0.5">
        <stop stop-color="#C9E2F4" offset="0%"/>
        <stop stop-color="#EAF5FF" offset="100%"/>
    </linearGradient>
    <linearGradient transform="matrix(1 0 0 1 0 0)"  id="4802" x1="0.851" y1="0.022" x2="0.125" y2="1.119">
        <stop stop-color="#ACD4F3" offset="0%"/>
        <stop stop-color="#4099F1" offset="100%"/>
    </linearGradient>
    <linearGradient transform="matrix(1 0 0 1 0 0)"  id="5032" x1="0.41" y1="0.946" x2="0.54" y2="0.018">
        <stop stop-color="#1D164D" offset="0%"/>
        <stop stop-color="#4A4975" offset="100%"/>
    </linearGradient>
    <linearGradient transform="matrix(1 0 0 1 0 0)"  id="5260" x1="0.811" y1="0.881" x2="0.6" y2="0.435">
        <stop stop-color="#FFC0AC" offset="0%"/>
        <stop stop-color="#FFD6C7" offset="100%"/>
    </linearGradient>
    <linearGradient transform="matrix(1 0 0 1 0 0)"  id="5488" x1="-0.05" y1="0.995" x2="0.948" y2="0.292">
        <stop stop-color="#1D164D" offset="0%"/>
        <stop stop-color="#4A4975" offset="100%"/>
    </linearGradient>
    <linearGradient transform="matrix(1 0 0 1 0 0)"  id="5718" x1="-0.308" y1="1.626" x2="0.698" y2="0.06">
        <stop stop-color="#C7283A" offset="0%"/>
        <stop stop-color="#EF4B4B" offset="100%"/>
    </linearGradient>
    <linearGradient transform="matrix(1 0 0 1 0 0)"  id="5948" x1="-0.081" y1="1.498" x2="0.549" y2="0.165">
        <stop stop-color="#FFC0AC" offset="0%"/>
        <stop stop-color="#FFD6C7" offset="100%"/>
    </linearGradient>
    <linearGradient transform="matrix(1 0 0 1 0 0)"  id="6179" x1="-0.125" y1="1.494" x2="0.644" y2="0.102">
        <stop stop-color="#FFC0AC" offset="0%"/>
        <stop stop-color="#FFD6C7" offset="100%"/>
    </linearGradient>
    <linearGradient transform="matrix(1 0 0 1 0 0)"  id="6410" x1="-0.058" y1="1.35" x2="0.722" y2="0.161">
        <stop stop-color="#FFC0AC" offset="0%"/>
        <stop stop-color="#FFD6C7" offset="100%"/>
    </linearGradient>
    <linearGradient transform="matrix(1 0 0 1 0 0)"  id="6640" x1="0.171" y1="0.841" x2="0.717" y2="0.364">
        <stop stop-color="#C9E2F4" offset="0%"/>
        <stop stop-color="#EAF5FF" offset="100%"/>
    </linearGradient>
    <linearGradient transform="matrix(1 0 0 1 0 0)"  id="6870" x1="0" y1="0.5" x2="1" y2="0.5">
        <stop stop-color="#1D164D" offset="0%"/>
        <stop stop-color="#4A4975" offset="100%"/>
    </linearGradient>
    <linearGradient transform="matrix(1 0 0 1 0 0)"  id="7088" x1="-0.51" y1="0.534" x2="3.227" y2="0.374">
        <stop stop-color="#FFFFFF" offset="0%"/>
        <stop stop-color="#FFFFFF" offset="100%"/>
    </linearGradient>
    <linearGradient transform="matrix(1 0 0 1 0 0)"  id="7318" x1="0.461" y1="1.348" x2="0.522" y2="0.521">
        <stop stop-color="#6BBC61" offset="0%"/>
        <stop stop-color="#A7DF63" offset="100%"/>
    </linearGradient>
    <linearGradient transform="matrix(1 0 0 1 0 0)"  id="7548" x1="0.89" y1="1.114" x2="0.223" y2="0.324">
        <stop stop-color="#1D164D" offset="0%"/>
        <stop stop-color="#4A4975" offset="100%"/>
    </linearGradient>
    <linearGradient transform="matrix(1 0 0 1 0 0)"  id="7777" x1="0.548" y1="0.873" x2="0.128" y2="0.179">
        <stop stop-color="#1D164D" offset="0%"/>
        <stop stop-color="#4A4975" offset="100%"/>
    </linearGradient>
    <linearGradient transform="matrix(1 0 0 1 0 0)"  id="8007" x1="1.091" y1="1.191" x2="0.39" y2="0.262">
        <stop stop-color="#C9E2F4" offset="0%"/>
        <stop stop-color="#EAF5FF" offset="100%"/>
    </linearGradient>
    <linearGradient transform="matrix(1 0 0 1 0 0)"  id="8236" x1="-0.938" y1="0.027" x2="3.062" y2="1.29">
        <stop stop-color="#FF63DE" offset="0%"/>
        <stop stop-color="#B122E5" offset="100%"/>
    </linearGradient>
    <linearGradient transform="matrix(1 0 0 1 0 0)"  id="8466" x1="0.736" y1="0.872" x2="0.515" y2="0.394">
        <stop stop-color="#FFC0AC" offset="0%"/>
        <stop stop-color="#FFD6C7" offset="100%"/>
    </linearGradient>
    <linearGradient transform="matrix(1 0 0 1 0 0)"  id="8696" x1="0.413" y1="1.728" x2="0.542" y2="0.027">
        <stop stop-color="#C9E2F4" offset="0%"/>
        <stop stop-color="#EAF5FF" offset="100%"/>
    </linearGradient>
    <linearGradient transform="matrix(1 0 0 1 0 0)"  id="8926" x1="0.678" y1="0.945" x2="0.432" y2="0.205">
        <stop stop-color="#FFC0AC" offset="0%"/>
        <stop stop-color="#FFD6C7" offset="100%"/>
    </linearGradient>
    <linearGradient transform="matrix(1 0 0 1 0 0)"  id="9156" x1="0" y1="0.5" x2="1" y2="0.5">
        <stop stop-color="#FFC0AC" offset="0%"/>
        <stop stop-color="#FFD6C7" offset="100%"/>
    </linearGradient>
    <linearGradient transform="matrix(1 0 0 1 0 0)"  id="9374" x1="0.801" y1="0.5" x2="1.801" y2="0.5">
        <stop stop-color="#1D164D" offset="0%"/>
        <stop stop-color="#4A4975" offset="100%"/>
    </linearGradient>
    <linearGradient transform="matrix(1 0 0 1 0 0)"  id="9600" x1="1.91" y1="0.5" x2="2.91" y2="0.5">
        <stop stop-color="#1D164D" offset="0%"/>
        <stop stop-color="#4A4975" offset="100%"/>
    </linearGradient>
    <linearGradient transform="matrix(1 0 0 1 0 0)"  id="9824" x1="10.296" y1="1.257" x2="8.755" y2="-0.022">
        <stop stop-color="#B7C0E2" offset="0%"/>
        <stop stop-color="#B7C0E2" offset="100%"/>
    </linearGradient>
    <linearGradient transform="matrix(1 0 0 1 0 0)"  id="10056" x1="0.612" y1="1.212" x2="0.448" y2="0.172">
        <stop stop-color="#1D164D" offset="0%"/>
        <stop stop-color="#4A4975" offset="100%"/>
    </linearGradient>
    <linearGradient transform="matrix(1 0 0 1 0 0)"  id="10287" x1="1.502" y1="1.191" x2="0.498" y2="0.373">
        <stop stop-color="#FFC0AC" offset="0%"/>
        <stop stop-color="#FFD6C7" offset="100%"/>
    </linearGradient>
    <linearGradient transform="matrix(1 0 0 1 0 0)"  id="10518" x1="1.023" y1="0.098" x2="1.921" y2="1.116">
        <stop stop-color="#1D164D" offset="0%"/>
        <stop stop-color="#4A4975" offset="100%"/>
    </linearGradient>
    <linearGradient transform="matrix(1 0 0 1 0 0)"  id="10749" x1="-0.168" y1="0.17" x2="1.513" y2="0.428">
        <stop stop-color="#1D164D" offset="0%"/>
        <stop stop-color="#4A4975" offset="100%"/>
    </linearGradient>
    <linearGradient transform="matrix(1 0 0 1 0 0)"  id="10980" x1="0.386" y1="0.266" x2="0.752" y2="1.169">
        <stop stop-color="#FFB965" offset="0%"/>
        <stop stop-color="#FF8A5F" offset="100%"/>
    </linearGradient>
</defs>

<g transform="matrix(1 0 0 0.99959505 0 0)">
	<g transform="matrix(1 0 0 1 -494 -0)">
		<g>
            <path d="M1366 0L494 0L715.312 618.425C 742.226 693.636 809.723 743.3 885.021 743.3L885.021 743.3L1366 743.3L1366 0z" stroke="none" fill="url(#1)" />
			<g transform="matrix(1 0 0 1 0 48)">
                <path d="M1366 695L1366 633.417L750.757 631.99C 784.607 670.39 831.82605 695 885.021 695L885.021 695L1366 695z" stroke="none" fill="url(#229)" />
				<g>
					<g>
                        <path transform="matrix(1 0 0 1 1014.841 648.151)"  d="M0 3.782C 0 1.693259 7.440131 0 16.618 0C 25.795868 0 33.236 1.693259 33.236 3.782C 33.236 5.870741 25.795868 7.564 16.618 7.564C 7.440131 7.564 0 5.870741 0 3.782" stroke="none" fill="#FFFFFF" fill-rule="nonzero" fill-opacity="0.2" />
                        <path transform="matrix(1 0 0 1 937.807 671.653)"  d="M0 2.605C 0 1.1662982 5.123205 0 11.443 0C 17.762794 0 22.886 1.1662982 22.886 2.605C 22.886 4.043702 17.762794 5.21 11.443 5.21C 5.123205 5.21 0 4.043702 0 2.605" stroke="none" fill="#FFFFFF" fill-rule="nonzero" fill-opacity="0.2" />
                        <path transform="matrix(1 0 0 1 851.615 658.652)"  d="M0 0.951C 0 0.42577714 1.871002 0 4.179 0C 6.4869976 0 8.358 0.42577714 8.358 0.951C 8.358 1.4762228 6.4869976 1.902 4.179 1.902C 1.871002 1.902 0 1.4762228 0 0.951" stroke="none" fill="#FFFFFF" fill-rule="nonzero" fill-opacity="0.2" />
                        <path transform="matrix(1 0 0 1 991.391 675.911)"  d="M0 0.951C 0 0.42577714 1.871002 0 4.179 0C 6.4869976 0 8.358 0.42577714 8.358 0.951C 8.358 1.4762228 6.4869976 1.902 4.179 1.902C 1.871002 1.902 0 1.4762228 0 0.951" stroke="none" fill="#FFFFFF" fill-rule="nonzero" fill-opacity="0.2" />
                        <path transform="matrix(1 0 0 1 1046.267 673.638)"  d="M0 3.224C 0 1.4434339 6.341886 0 14.165 0C 21.988113 0 28.33 1.4434339 28.33 3.224C 28.33 5.004566 21.988113 6.448 14.165 6.448C 6.341886 6.448 0 5.004566 0 3.224" stroke="none" fill="#FFFFFF" fill-rule="nonzero" fill-opacity="0.2" />
                        <path transform="matrix(1 0 0 1 871.545 681.755)"  d="M0 2.424C 0 1.0852617 4.7668242 0 10.647 0C 16.527176 0 21.294 1.0852617 21.294 2.424C 21.294 3.7627382 16.527176 4.848 10.647 4.848C 4.7668242 4.848 0 3.7627382 0 2.424" stroke="none" fill="#FFFFFF" fill-rule="nonzero" fill-opacity="0.2" />
                        <path transform="matrix(1 0 0 1 918.523 649.038)"  d="M0 2.896C 0 1.2965833 5.6953855 0 12.721 0C 19.746614 0 25.442 1.2965833 25.442 2.896C 25.442 4.4954166 19.746614 5.792 12.721 5.792C 5.6953855 5.792 0 4.4954166 0 2.896" stroke="none" fill="#FFFFFF" fill-rule="nonzero" fill-opacity="0.2" />
					</g>
					<g>
                        <path transform="matrix(1 0 0 1 1157.222 644.983)"  d="M0 3.782C 0 1.693259 7.440131 0 16.618 0C 25.795868 0 33.236 1.693259 33.236 3.782C 33.236 5.870741 25.795868 7.564 16.618 7.564C 7.440131 7.564 0 5.870741 0 3.782" stroke="none" fill="#FFFFFF" fill-rule="nonzero" fill-opacity="0.2" />
                        <path transform="matrix(1 0 0 1 1244.604 668.485)"  d="M0 2.605C 0 1.1662982 5.123205 0 11.443 0C 17.762794 0 22.886 1.1662982 22.886 2.605C 22.886 4.043702 17.762794 5.21 11.443 5.21C 5.123205 5.21 0 4.043702 0 2.605" stroke="none" fill="#FFFFFF" fill-rule="nonzero" fill-opacity="0.2" />
                        <path transform="matrix(1 0 0 1 1345.324 655.484)"  d="M0 0.951C 0 0.42577714 1.871002 0 4.179 0C 6.4869976 0 8.358 0.42577714 8.358 0.951C 8.358 1.4762228 6.4869976 1.902 4.179 1.902C 1.871002 1.902 0 1.4762228 0 0.951" stroke="none" fill="#FFFFFF" fill-rule="nonzero" fill-opacity="0.2" />
                        <path transform="matrix(1 0 0 1 1205.548 672.743)"  d="M0 0.951C 0 0.42577714 1.871002 0 4.179 0C 6.4869976 0 8.358 0.42577714 8.358 0.951C 8.358 1.4762228 6.4869976 1.902 4.179 1.902C 1.871002 1.902 0 1.4762228 0 0.951" stroke="none" fill="#FFFFFF" fill-rule="nonzero" fill-opacity="0.2" />
                        <path transform="matrix(1 0 0 1 1130.701 670.47)"  d="M0 3.224C 0 1.4434339 6.341886 0 14.165 0C 21.988113 0 28.33 1.4434339 28.33 3.224C 28.33 5.004566 21.988113 6.448 14.165 6.448C 6.341886 6.448 0 5.004566 0 3.224" stroke="none" fill="#FFFFFF" fill-rule="nonzero" fill-opacity="0.2" />
                        <path transform="matrix(1 0 0 1 1312.458 678.587)"  d="M0 2.424C 0 1.0852617 4.7668242 0 10.647 0C 16.527176 0 21.294 1.0852617 21.294 2.424C 21.294 3.7627382 16.527176 4.848 10.647 4.848C 4.7668242 4.848 0 3.7627382 0 2.424" stroke="none" fill="#FFFFFF" fill-rule="nonzero" fill-opacity="0.2" />
                        <path transform="matrix(1 0 0 1 1261.332 645.87)"  d="M0 2.896C 0 1.2965833 5.6953855 0 12.721 0C 19.746614 0 25.442 1.2965833 25.442 2.896C 25.442 4.4954166 19.746614 5.792 12.721 5.792C 5.6953855 5.792 0 4.4954166 0 2.896" stroke="none" fill="#FFFFFF" fill-rule="nonzero" fill-opacity="0.2" />
					</g>
				</g>
			</g>
            <path transform="matrix(1 0 0 1 41 145)"  d="M829.333 43C 782 58.333 716 22 640 40C 590.312 51.767998 557.725 94.748 541.115 123.1L541.115 123.1L606.4 293.687C 606.4 293.681 585.87305 75.61101 758.192 75.38701C 930.511 75.16301 850.239 0 954.905 0L954.905 0L893.5 0C 893.5 0 876.667 27.667 829.333 43z" stroke="none" fill="#FFFFFF" fill-rule="nonzero" fill-opacity="0.2" />
            <path transform="matrix(1 0 0 1 0 145)"  d="M1007.588 0L1024 0C 1024 0 1063.177 46.5 1146.667 33C 1230.157 19.5 1171.819 98.68 1222.19 118.391C 1272.5609 138.10199 1280.0609 60.675 1317.559 75.391C 1355.057 90.106995 1366 75.391 1366 75.391L1366 75.391L1366 195.643C 1366 195.643 1339.43 201.40701 1326.215 162.70401C 1312.9999 124.00101 1274.38 177.404 1222.19 162.70401C 1169.9999 148.00401 1205.148 67 1136.574 67C 1068 67 1079.333 51.667 1048 31C 1016.667 10.333 1007.588 0 1007.588 0z" stroke="none" fill="#FFFFFF" fill-rule="nonzero" fill-opacity="0.2" />
		</g>
		<g transform="matrix(1 0 0 1 670.198 127.263)">
			<g transform="matrix(1 0 0 1 0 0)">
                <path transform="matrix(1 0 0 1 -663.67 -74.899)"  d="M956.859 75.39L956.859 182.277C 1041.4943 190.56259 1107.0048 260.08228 1110.2544 345.05997C 1113.504 430.03766 1053.494 504.3574 969.7388 519.0824C 885.9835 533.80743 804.2233 484.41235 778.294 403.422C 778.2827 403.39706 778.27594 403.37033 778.274 403.343C 777.64 401.38168 777.04565 399.407 776.49097 397.41898C 775.956 395.477 775.441 393.50598 774.96497 391.53397C 774.85596 391.08795 774.74695 390.64197 774.64795 390.19696C 774.39996 389.14697 774.17194 388.09695 773.94794 387.04697C 773.7799 386.23495 773.61096 385.42197 773.44794 384.59998C 773.2479 383.62897 773.07196 382.658 772.89294 381.67697C 772.75397 380.88397 772.61597 380.09198 772.48694 379.29898C 772.38696 378.705 772.29895 378.12 772.20996 377.52597C 772.10095 376.80298 771.99194 376.07996 771.89294 375.35596C 771.8339 374.95596 771.78394 374.56296 771.7349 374.16696C 771.63495 373.44397 771.5349 372.72995 771.45795 372.00696C 771.3289 370.98697 771.22 369.96597 771.121 368.93594C 771.07196 368.51996 771.032 368.10394 770.99194 367.67795C 770.91296 366.78595 770.8339 365.88495 770.7639 364.99295C 770.6749 363.90295 770.5959 362.80396 770.5359 361.70395L770.5359 361.70395L770.5359 361.62494C 770.4859 360.77295 770.4359 359.92493 770.40686 359.06894C 770.38684 358.76193 770.37683 358.45493 770.3669 358.14795C 770.33685 357.42496 770.30786 356.69196 770.2979 355.95895C 770.2779 355.45395 770.2679 354.95895 770.2679 354.45294C 770.2479 353.49228 770.2379 352.53128 770.23785 351.56995C 770.1757 307.4478 787.32074 265.04047 818.02985 233.35895L818.02985 233.35895L742.679 158C 691.9541 209.64989 663.57556 279.17618 663.67 351.569C 663.67 353.78833 663.6963 355.99768 663.74896 358.197C 663.769 359.297 663.80896 360.397 663.84894 361.49698C 663.87897 362.369 663.90796 363.24097 663.9489 364.11197C 663.96893 364.46896 663.97894 364.82498 663.9979 365.18198C 664.02795 365.83597 664.0669 366.49 664.10693 367.14398C 664.1569 368.055 664.2069 368.96698 664.27594 369.86798C 664.3159 370.581 664.3649 371.304 664.4149 372.02798C 664.4549 372.573 664.4939 373.11798 664.54395 373.65298C 664.6129 374.55298 664.69293 375.46597 664.772 376.36798C 664.85095 377.309 664.94 378.24997 665.039 379.18198C 665.118 380.03397 665.20703 380.882 665.297 381.73798C 665.38696 382.59396 665.485 383.45197 665.597 384.304C 665.716 385.38397 665.855 386.45398 665.997 387.524C 666.13904 388.594 666.284 389.664 666.433 390.724C 667.03766 394.99066 667.7377 399.224 668.53296 403.424C 692.795 531.433 805.26996 628.235 940.34296 628.235C 1093.143 628.235 1217.007 504.367 1217.007 351.57098C 1217 204.31 1101.968 83.93 956.859 75.39z" stroke="none" fill="#EAF5FF" fill-rule="nonzero" />
                <path transform="matrix(1 0 0 1 -663.67 -75.674)"  d="M776.491 398.194C 775.95605 396.252 775.44104 394.281 774.965 392.309C 774.856 391.86298 774.747 391.417 774.648 390.972C 774.4 389.922 774.172 388.87198 773.948 387.822C 773.77997 387.00998 773.611 386.197 773.448 385.375C 773.248 384.404 773.072 383.433 772.893 382.452C 772.754 381.659 772.616 380.867 772.487 380.074C 772.387 379.48 772.299 378.89502 772.21 378.301C 772.101 377.578 771.992 376.85498 771.893 376.13098C 771.834 375.731 771.774 375.33798 771.735 374.942C 771.626 374.22897 771.535 373.50497 771.458 372.78198C 771.329 371.762 771.22003 370.741 771.12103 369.71097C 771.072 369.29498 771.03204 368.87897 770.992 368.45297C 770.903 367.56097 770.834 366.66998 770.764 365.76797C 770.675 364.67798 770.59595 363.57898 770.53595 362.47897L770.53595 362.47897L770.53595 362.4C 770.4769 361.548 770.436 360.69998 770.4069 359.844C 770.3869 359.537 770.3769 359.22998 770.36694 358.923C 770.3369 358.2 770.3079 357.467 770.298 356.734C 770.27795 356.234 770.26794 355.734 770.26794 355.228C 770.2479 354.26733 770.2379 353.30634 770.2379 352.345C 770.1758 308.2229 787.3208 265.81552 818.0299 234.134L818.0299 234.134L742.679 158.78C 691.9552 210.4286 663.5768 279.95288 663.67 352.344C 663.67 354.56335 663.6963 356.77267 663.74896 358.972C 663.769 360.072 663.80896 361.172 663.84894 362.27197C 663.87897 363.14398 663.90796 364.01596 663.9489 364.88797C 663.96893 365.24496 663.97894 365.60098 663.9979 365.95798C 664.02795 366.61197 664.0669 367.266 664.10693 367.91998C 664.1569 368.831 664.2069 369.74298 664.27594 370.64398C 664.3159 371.357 664.3649 372.081 664.4149 372.804C 664.4549 373.349 664.4939 373.89398 664.54395 374.429C 664.6129 375.32898 664.69293 376.24197 664.772 377.14398C 664.85095 378.085 664.94 379.016 665.039 379.95798C 665.118 380.80997 665.20703 381.658 665.297 382.51398C 665.38696 383.36996 665.485 384.22797 665.597 385.08C 665.716 386.15997 665.855 387.22998 665.997 388.3C 666.13904 389.37 666.284 390.44 666.433 391.5C 667.03766 395.76666 667.7377 400 668.53296 404.2L668.53296 404.2L778.303 404.2C 778.2917 404.17508 778.2849 404.14835 778.28296 404.121C 777.641 402.156 777.056 400.185 776.491 398.194z" stroke="none" fill="#ACD4F3" fill-rule="nonzero" />
                <path transform="matrix(1 0 0 1 -664.526 -74.894)"  d="M831.245 221.784C 861.9346 195.70302 900.9122 181.40913 941.187 181.466L941.187 181.466L941.187 74.894C 872.6437 74.79782 806.5235 100.243164 755.728 146.265L755.728 146.265L831.245 221.784z" stroke="none" fill="#FED300" fill-rule="nonzero" />
				<text transform="matrix(1 0 0 1 38.28 193.104)" x="0" y="0" style="fill:#4099F1;font-family:Times New Roman;font-weight:bold;" font-size="31">

				</text>
				<text transform="matrix(1 0 0 1 38.28 193.104)" x="0" y="0" style="fill:#4099F1;font-family:Times New Roman;font-weight:bold;" font-size="31">
25g
				</text>
				<text transform="matrix(1 0 0 1 38.28 193.104)" x="46.5" y="0" style="fill:#4099F1;font-family:Times New Roman;font-weight:bold;" font-size="21">

				</text>
				<text transform="matrix(1 0 0 1 38.28 193.104)" x="46.5" y="0" style="fill:#4099F1;font-family:Times New Roman;font-weight:bold;" font-size="21">

				</text>
				<text transform="matrix(1 0 0 1 38.28 193.104)" x="0" y="38" style="fill:#4099F1;font-family:Times New Roman;font-weight:bold;" font-size="21">
carbs
				</text>
				<text transform="matrix(1 0 0 1 157.507 67.166)" x="0" y="0" style="fill:#D19500;font-family:Times New Roman;font-weight:bold;" font-size="30">

				</text>
				<text transform="matrix(1 0 0 1 157.507 67.166)" x="0" y="0" style="fill:#D19500;font-family:Times New Roman;font-weight:bold;" font-size="30">
0.3g
				</text>
				<text transform="matrix(1 0 0 1 157.507 67.166)" x="52.499996" y="0" style="fill:#D19500;font-family:Times New Roman;font-weight:bold;" font-size="24">

				</text>
				<text transform="matrix(1 0 0 1 157.507 67.166)" x="52.499996" y="0" style="fill:#D19500;font-family:Times New Roman;font-weight:bold;" font-size="24">

				</text>
				<text transform="matrix(1 0 0 1 157.507 67.166)" x="0" y="36" style="fill:#D19500;font-family:Times New Roman;font-weight:bold;" font-size="24">
fat
				</text>
				<text transform="matrix(1 0 0 1 373.02 96.712)" x="0" y="0" style="fill:#8F9BC1;font-family:Times New Roman;font-weight:bold;" font-size="46">

				</text>
				<text transform="matrix(1 0 0 1 373.02 96.712)" x="0" y="0" style="fill:#8F9BC1;font-family:Times New Roman;font-weight:bold;" font-size="46">
95
				</text>
				<text transform="matrix(1 0 0 1 373.02 96.712)" x="46" y="0" style="fill:#8F9BC1;font-family:Times New Roman;font-weight:bold;" font-size="15">

				</text>
				<text transform="matrix(1 0 0 1 373.02 96.712)" x="46" y="0" style="fill:#8F9BC1;font-family:Times New Roman;font-weight:bold;" font-size="15">

				</text>
				<text transform="matrix(1 0 0 1 373.02 96.712)" x="0" y="27" style="fill:#8F9BC1;font-family:Times New Roman;font-weight:bold;" font-size="15">
calories
				</text>
			</g>
		</g>
		<g transform="matrix(1 0 0 1 635.259 349.905)">
			<g>
                <path transform="matrix(1 0 0 1 -628.403 -300.27)"  d="M829.117 375.439C 829.117 375.439 781.563 397.72998 743.417 383.86C 705.271 369.99 670.271 354.63397 644.925 394.50998C 619.579 434.386 623.38 506.144 656.4 563.061C 689.42004 619.9779 702.07605 630.46796 726.077 632.11694C 750.078 633.7659 755.33905 624.49097 769.177 622.4379C 783.01495 620.3849 799.055 628.9589 814.456 629.0089C 829.857 629.0589 843.861 613.1089 843.861 613.1089L843.861 613.1089L829.117 375.439z" stroke="none" fill="url(#454)" />
                <path transform="matrix(1 0 0 1 -629.409 -300.343)"  d="M827.344 383.933C 830.781 424.5 795.4 479.786 808.173 501.5C 820.9459 523.214 804.36694 605.955 768.094 613.178C 749.25 616.93097 740.60297 625.186 736.632 632.256C 752.83203 631.235 758.408 624.256 770.185 622.51C 784.02 620.45703 800.063 629.031 815.464 629.081C 830.865 629.131 844.869 613.18097 844.869 613.18097L844.869 613.18097L830.2 376.773C 828.03 376.921 826.944 379.2 827.344 383.933z" stroke="none" fill="#6AD419" fill-rule="nonzero" />
                <path transform="matrix(1 0 0 1 -628.403 -300.27)"  d="M697.435 576.855C 667.797 584.092 667.135 543.855 674.567 523.555C 681.999 503.255 644.846 468.57098 660.804 462.465C 676.762 456.359 676.05304 492.348 689.45 477.487C 702.847 462.626 661.192 429.93298 666.15 405.061C 670.05005 385.49402 704.903 377.772 719.59705 375.36902C 690.843 365.96902 664.89703 363.11502 644.934 394.51602C 619.583 434.386 623.38 506.144 656.4 563.061C 689.42004 619.9779 702.07605 630.46796 726.077 632.11694C 729.2991 632.3526 732.5334 632.37195 735.75806 632.1749C 735.972 607.006 718.577 571.692 697.435 576.855z" stroke="none" fill="url(#682)" />
				<g transform="matrix(1 0 0 1 86.696 0)">
                    <path transform="matrix(1 0 0 1 -716.374 -299.625)"  d="M767.214 344.643C 767.214 344.643 782.114 305.857 812.748 301.543C 843.38196 297.229 879.192 301.543 879.192 301.543C 879.192 301.543 867.542 332.176 839.067 353.743C 810.59204 375.31003 778.99 370.94302 770.413 365.36502C 761.83606 359.78702 767.214 344.643 767.214 344.643z" stroke="none" fill="url(#911)" />
                    <path transform="matrix(1 0 0 1 -715.913 -300.382)"  d="M766.841 391.609C 779.6854 390.99847 792.43115 389.04718 804.87 385.78702C 824.356 380.50702 828.394 391.609 795.604 400.238C 762.814 408.867 743.904 405.415 727.076 395.707C 710.248 385.999 714.776 381.686 725.35 381.038C 735.92395 380.38998 748.405 393.416 766.841 391.609z" stroke="none" fill="#6AD419" fill-rule="nonzero" />
                    <path transform="matrix(1 0 0 1 -716.188 -299.832)"  d="M763.521 396.523C 763.521 396.523 766.973 400.55002 769.705 396.523C 771.34235 381.67847 770.95544 366.6804 768.555 351.94C 766.326 339.20502 762.203 330.478 758.96497 325.224C 757.90344 323.5174 756.17523 322.33386 754.2003 321.96097C 752.22546 321.58807 750.1847 322.05997 748.574 323.262L748.574 323.262L748.35 323.42798C 746.8123 324.5683 745.79535 326.27673 745.5259 328.17197C 745.2565 330.06717 745.757 331.99136 746.91595 333.51498C 752.1714 340.69415 756.2025 348.69357 758.84595 357.189C 762.88306 369.88556 764.46954 383.2339 763.521 396.523z" stroke="none" fill="url(#1139)" />
				</g>
				<g transform="matrix(1 0 0 1 21.142 95.039)">
					<g transform="matrix(1 0 0 1 0 14.733)">
                        <path transform="matrix(1 0 0 1 -649.743 -410.427)"  d="M653.935 466.527C 654.05865 466.52728 654.1821 466.5206 654.305 466.50702C 655.203 466.41113 656.02606 465.96188 656.5924 465.25836C 657.1588 464.5548 657.422 463.65485 657.324 462.75702C 655.3 444.031 657.264 426.73303 662.71295 415.29703C 663.5218 413.59985 662.80164 411.56833 661.10443 410.75952C 659.4073 409.9507 657.3758 410.67087 656.56696 412.36804C 650.58997 424.91104 648.3989 443.54303 650.55493 463.48804C 650.7395 465.21594 652.19727 466.5266 653.935 466.527z" stroke="none" fill="#FFFFFF" fill-rule="nonzero" />
					</g>
					<g transform="matrix(1 0 0 1 16.227 0)">
                        <path transform="matrix(1 0 0 1 -666.123 -395.556)"  d="M669.53 405.131C 670.1727 405.13123 670.8023 404.94843 671.34503 404.604C 673.4852 403.1283 676.0274 402.3463 678.627 402.364C 680.507 402.364 682.031 400.84 682.031 398.96002C 682.031 397.08005 680.507 395.55603 678.627 395.556C 674.7405 395.53687 670.93744 396.6832 667.709 398.847C 666.4267 399.65677 665.83453 401.217 666.25665 402.6737C 666.6788 404.13037 668.0134 405.13226 669.52997 405.13098L669.52997 405.13098L669.53 405.131z" stroke="none" fill="#FFFFFF" fill-rule="nonzero" />
					</g>
				</g>
			</g>
		</g>
		<g transform="matrix(1 0 0 1 829.677 157.722)">
			<g transform="matrix(1 0 0 1 0 0)">
				<g transform="matrix(1 0 0 1 34.198 0)">
                    <path transform="matrix(1 0 0 1 -859.367 -105.639)"  d="M945.281 131.482C 945.281 131.482 936.727 109.216995 919.142 106.73999C 901.55707 104.262985 881 106.73999 881 106.73999C 886.02374 118.51468 893.9482 128.82497 904.034 136.70898C 920.381 149.09299 938.521 146.58398 943.445 143.37999C 948.369 140.176 945.281 131.482 945.281 131.482z" stroke="none" fill="url(#1373)" />
                    <path transform="matrix(1 0 0 1 -859.164 -106.011)"  d="M880.8 270.331C 880.8 270.331 856.032 242.096 859.5 197.019C 862.968 151.942 890.7 146.74 904.326 149.96C 917.95197 153.18001 936.276 160.86 951.63196 155.66C 966.9879 150.46 984.821 139.06601 1003.644 150.95401C 1022.467 162.84201 1027.091 190.91202 1024.444 215.354C 1021.797 239.79599 1003.969 270.338 993.071 278.388L993.071 278.388L880.8 270.331z" stroke="none" fill="url(#1602)" />
                    <path transform="matrix(1 0 0 1 -859.971 -106.012)"  d="M1004.451 150.951C 995.432 145.251 986.64 144.909 978.238 146.66101C 987.495 154.24802 974.552 175.889 978.363 181.33301C 982.98596 187.93301 993.224 172.74701 990.49695 187.60701C 987.7699 202.46701 984.9669 208.742 993.34094 209.07301C 1001.71497 209.40402 997.5159 222.94301 986.72095 248.04001C 978.66095 266.777 956.62994 272.997 945.97894 274.94702L945.97894 274.94702L993.87897 278.381C 1004.779 270.332 1022.60895 239.781 1025.252 215.34702C 1027.895 190.91302 1023.275 162.839 1004.451 150.951z" stroke="none" fill="url(#1830)" />
					<g transform="matrix(1 0 0 1 137.977 68.76)">
                        <path transform="matrix(1 0 0 1 -998.435 -175.044)"  d="M1005.063 215.86C 1004.9731 215.85997 1004.8833 215.85497 1004.794 215.845C 1004.14014 215.77579 1003.5407 215.44925 1003.128 214.93745C 1002.7153 214.42566 1002.52313 213.77066 1002.594 213.117C 1004.066 199.49301 1002.638 186.908 998.673 178.58801C 998.2745 177.78688 998.339 176.83315 998.8418 176.09302C 999.3446 175.35289 1000.2074 174.94144 1001.099 175.01666C 1001.9906 175.09189 1002.7723 175.64209 1003.144 176.45601C 1007.493 185.58202 1009.087 199.138 1007.518 213.64902C 1007.38293 214.90407 1006.3253 215.85657 1005.063 215.86z" stroke="none" fill="#FFFFFF" fill-rule="nonzero" />
					</g>
                    <path transform="matrix(1 0 0 1 -859.164 -106.225)"  d="M917.427 273.171C 914.002 269.597 912.474 262.99298 906.227 264.435C 897.641 266.416 905.23596 257.5 900.613 249.905C 895.99 242.31 890.376 251.886 882.11896 246.272C 873.86194 240.658 895.65894 217.542 888.72394 213.324C 881.78894 209.106 881.12396 227.778 872.54297 220.843C 866.527 215.985 866.428 186.159 866.90796 168.74301C 863.165 175.72801 860.43896 185.01302 859.49896 197.23502C 856.032 242.31201 880.79895 270.547 880.79895 270.547L880.79895 270.547L917.427 273.171z" stroke="none" fill="#C7283A" fill-rule="nonzero" />
					<g transform="matrix(1 0 0 1 124.274 58.041)">
                        <path transform="matrix(1 0 0 1 -984.604 -164.224)"  d="M993.7 171.191C 993.23224 171.1914 992.77405 171.05856 992.379 170.808C 990.82135 169.73389 988.971 169.16483 987.07904 169.178C 985.7124 169.17598 984.60565 168.06758 984.60565 166.70099C 984.60565 165.3344 985.7124 164.226 987.07904 164.224C 989.9068 164.21191 992.6732 165.04791 995.02106 166.624C 995.95355 167.21323 996.38403 168.34813 996.07697 169.40761C 995.76984 170.4671 994.7991 171.19582 993.69604 171.19499L993.69604 171.19499L993.7 171.191z" stroke="none" fill="#FFFFFF" fill-rule="nonzero" />
					</g>
                    <path transform="matrix(1 0 0 1 -859.684 -106.073)"  d="M945.547 158.443C 938.1737 158.09196 930.8574 156.97156 923.717 155.09999C 912.531 152.068 910.217 158.443 929.03595 163.4C 947.8549 168.357 958.71594 166.372 968.37494 160.79999C 978.03394 155.22798 975.43396 152.75099 969.36597 152.37898C 963.298 152.00697 956.131 159.48 945.547 158.443z" stroke="none" fill="#C7283A" fill-rule="nonzero" />
                    <path transform="matrix(1 0 0 1 -859.95 -105.757)"  d="M947.878 161.265C 947.878 161.265 945.897 163.576 944.32697 161.265C 943.3876 152.7431 943.6099 144.13304 944.988 135.671C 945.8368 130.25694 947.70483 125.05296 950.493 120.33501C 951.1023 119.355515 952.09424 118.67622 953.2277 118.46222C 954.3612 118.248215 955.53253 118.51909 956.457 119.20901L956.457 119.20901L956.586 119.309006C 957.4687 119.96367 958.05255 120.94452 958.2072 122.032585C 958.3618 123.12065 958.07434 124.22533 957.409 125.100006C 954.3926 129.22154 952.07837 133.81345 950.56 138.69C 948.2436 145.97708 947.33344 153.63803 947.878 161.265z" stroke="none" fill="url(#2058)" />
				</g>
                <path transform="matrix(1 0 0 1 0 192.491)"  d="M0 45.749C 0 20.482525 20.482525 0 45.749 0L45.749 0L191.811 0C 217.07747 0 237.56 20.482525 237.56 45.749L237.56 45.749L237.56 191.811C 237.56 217.07747 217.07747 237.56 191.811 237.56L191.811 237.56L45.749 237.56C 20.482525 237.56 0 217.07747 0 191.811L0 191.811L0 45.749z" stroke="none" fill="url(#2288)" />
				<g transform="matrix(1 0 0 1 21.529 214.02)">
                    <path d="M194.502 97.251C 194.502 124.10613 185.00728 147.02841 166.01784 166.01784C 147.02841 185.00728 124.10613 194.502 97.251 194.502C 70.395874 194.502 47.4736 185.00728 28.484161 166.01784C 9.49472 147.02841 0 124.10613 0 97.251C 0 70.395874 9.49472 47.4736 28.484161 28.484161C 47.4736 9.49472 70.395874 0 97.251 0C 124.10613 0 147.02841 9.49472 166.01784 28.484161C 185.00728 47.4736 194.502 70.395874 194.502 97.251C 194.502 98.38268 194.48225 99.51402 194.44275 100.64501" stroke="none" fill="url(#2514)" />
					<g transform="matrix(1 0 0 1 96.26 9.907)">
                        <path d="M0 0L1.981 0L1.981 16.181L0 16.181z" stroke="none" fill="#1D164D" fill-rule="nonzero" />
					</g>
					<g transform="matrix(1 0 0 1 34.789 34.789)">
                        <path transform="matrix(0.7071191 -0.7070945 0.7070945 0.7071191 0 1.401)"  d="M0 0L1.981 0L1.981 16.182L0 16.182z" stroke="none" fill="#1D164D" fill-rule="nonzero" />
					</g>
					<g transform="matrix(1 0 0 1 9.907 96.26)">
                        <path d="M0 0L16.182 0L16.182 1.981L0 1.981z" stroke="none" fill="#1D164D" fill-rule="nonzero" />
					</g>
					<g transform="matrix(1 0 0 1 34.789 146.87)">
                        <path transform="matrix(0.7071067 -0.7071068 0.7071068 0.7071067 0 11.442)"  d="M0 0L16.181 0L16.181 1.981L0 1.981z" stroke="none" fill="#1D164D" fill-rule="nonzero" />
					</g>
					<g transform="matrix(1 0 0 1 96.26 168.413)">
                        <path d="M0 0L1.981 0L1.981 16.181L0 16.181z" stroke="none" fill="#1D164D" fill-rule="nonzero" />
					</g>
					<g transform="matrix(1 0 0 1 146.87 146.87)">
                        <path transform="matrix(0.7070944 -0.70711917 0.70711917 0.7070944 0 1.401)"  d="M0 0L1.981 0L1.981 16.181L0 16.181z" stroke="none" fill="#1D164D" fill-rule="nonzero" />
					</g>
					<g transform="matrix(1 0 0 1 168.413 96.26)">
                        <path d="M0 0L16.182 0L16.182 1.981L0 1.981z" stroke="none" fill="#1D164D" fill-rule="nonzero" />
					</g>
					<g transform="matrix(1 0 0 1 146.87 34.789)">
                        <path transform="matrix(0.7071067 -0.7071068 0.7071068 0.7071067 0 11.442)"  d="M0 0L16.182 0L16.182 1.981L0 1.981z" stroke="none" fill="#1D164D" fill-rule="nonzero" />
					</g>
				</g>
                <path transform="matrix(1 0 0 1 -825.434 -108.334)"  d="M937.405 403.426L927.49805 395.565L909.49805 419.604L1000.25305 449.476L954.87604 414.07602C 954.87604 414.07602 957.715 399.793 937.405 403.426z" stroke="none" fill="#1D164D" fill-rule="nonzero" />
                <path transform="matrix(1 0 0 1 72.836 180.418)"  d="M0 0L91.888 0L91.888 11.765L0 11.765z" stroke="none" fill="url(#2744)" />
                <path transform="matrix(1 0 0 1 45.26 164.319)"  d="M0 0L147.04 0L147.04 0L147.04 0C 147.04 4.2699857 145.34373 8.365087 142.3244 11.384422C 139.30507 14.403758 135.20996 16.100002 130.93999 16.1L130.93999 16.1L16.1 16.1C 7.2082157 16.1 0 8.891785 0 0L0 0L0 0z" stroke="none" fill="url(#2969)" />
			</g>
		</g>
		<g transform="matrix(1 0 0 1 1115.578 255.267)">
			<g transform="matrix(1 0 0 1 0 0)">
                <path transform="matrix(1 0 0 1 0 95.194)"  d="M0 0L250.422 0L250.422 330.132L0 330.132z" stroke="none" fill="url(#3196)" />
                <path transform="matrix(1 0 0 1 171.592 95.194)"  d="M0 0L78.83 0L78.83 330.132L0 330.132z" stroke="none" fill="url(#3425)" />
                <path transform="matrix(1 0 0 1 -1114.838 -204.341)"  d="M1325.845 299.535L1286.43 299.535L1306.1381 264.813L1325.8461 230.09099L1345.5541 264.813L1365.2621 299.53497L1325.845 299.535z" stroke="none" fill="#4099F1" fill-rule="nonzero" />
                <path transform="matrix(1 0 0 1 -1113.229 -204.341)"  d="M1152.75 230.092L1324.236 230.092L1284.8209 299.535L1113.335 299.535L1152.75 230.092z" stroke="none" fill="url(#3651)" />
                <path transform="matrix(1 0 0 1 39.521 0)"  d="M0 0L171.486 0L171.486 25.751L0 25.751z" stroke="none" fill="#ACD4F3" fill-rule="nonzero" />
                <path transform="matrix(1 0 0 1 0 143.025)"  d="M0 0L136.4 0L136.4 197.841L0 197.841z" stroke="none" fill="#FFFFFF" fill-rule="nonzero" fill-opacity="0.29803923" />
			</g>
		</g>
		<g transform="matrix(1 0 0 1 720.886 472.574)">
			<g>
                <path transform="matrix(1 0 0 1 -714.833 -423.446)"  d="M769.983 471.451C 769.983 471.451 754.462 452.793 752.316 442.556C 750.17 432.319 746.372 430.337 737.125 426.869C 732.8059 425.3551 728.35583 424.24435 723.832 423.551C 721.5842 423.1861 719.2897 423.82727 717.55676 425.30453C 715.8238 426.78177 714.82745 428.94586 714.832 431.223L714.832 431.223L714.832 435.93298C 714.86273 443.25366 718.3131 450.1393 724.159 454.546C 731.847 460.404 741.615 470.60098 742.408 484.97598C 743.729 508.93298 738.32605 535.776 769.982 568.54C 801.63794 601.30396 858.031 623.716 914.315 630.307C 970.599 636.898 1067.22 615.107 1112.531 571.016C 1157.842 526.925 1161.037 512.235 1160.931 497.70398C 1160.8251 483.17297 1161.3151 473.92697 1166.269 468.809C 1166.269 468.809 1168.769 453.34998 1160.087 449.60898C 1152.8519 446.3999 1144.5936 446.41843 1137.373 449.65997C 1131.594 452.30197 1127.508 454.61398 1117.353 456.347C 1107.198 458.08 1065.383 487.14697 1033.68 503.98398C 1001.97705 520.821 969.22504 534.696 929.46106 518.18396C 889.6971 501.67194 834.2181 474.68396 810.1111 470.34595C 786.0041 466.00793 769.983 471.451 769.983 471.451z" stroke="none" fill="#FED300" fill-rule="nonzero" />
                <path transform="matrix(1 0 0 1 -715.351 -423.87)"  d="M854.361 501.713C 899.461 538.748 921.73804 548.69604 947.17004 549.171C 972.60205 549.646 952.29407 540.918 960.21906 535.37103C 968.14404 529.82404 974.58405 552.87103 992.41907 552.49304C 1010.2541 552.11505 988.83307 538.84705 998.4261 531.713C 1008.0191 524.579 1066.0261 523.883 1071.326 505.55502C 1073.932 496.55502 1076.587 485.713 1081.484 476.523C 1066.398 485.763 1049.1691 496.44302 1034.1951 504.39902C 1002.49506 521.241 969.74005 535.111 929.9761 518.599C 890.2121 502.08698 834.7331 475.099 810.6261 470.761C 786.5191 466.42297 770.5021 471.87097 770.5021 471.87097C 770.5021 471.87097 809.265 464.678 854.361 501.713z" stroke="none" fill="#FFFFFF" fill-rule="nonzero" fill-opacity="0.29803923" />
                <path transform="matrix(1 0 0 1 -714.833 -423.446)"  d="M1160.927 497.7C 1160.816 483.17 1161.311 473.923 1166.265 468.80502C 1166.265 468.80502 1167.816 459.17 1164.198 453.27002C 1162.627 462.67 1156.192 469.30103 1150.204 470.337C 1144.216 471.373 1152.5599 479.868 1145.625 495.462C 1138.6901 511.056 1106.474 513.127 1093.018 542.777C 1079.5619 572.42694 1073.304 565.399 1068.974 548.742C 1064.644 532.085 1007.257 581.25 975.779 598.442C 944.30096 615.63403 903.563 579.266 837.216 577.942C 770.869 576.61804 752.316 526.42505 756.938 504.63C 761.56 482.83496 755.287 463.681 739.766 452.004C 728.557 443.572 733.536 432.424 737.166 426.878L737.166 426.878L737.12 426.86C 732.8009 425.3461 728.3508 424.23535 723.82697 423.542C 721.5792 423.1771 719.28467 423.81827 717.55176 425.29553C 715.8188 426.77277 714.82245 428.93686 714.82697 431.214L714.82697 431.214L714.82697 435.92398C 714.8577 443.24463 718.3081 450.13028 724.154 454.537C 731.842 460.395 741.61 470.59198 742.403 484.96698C 743.724 508.92398 738.32104 535.76697 769.977 568.531C 801.63293 601.29504 858.026 623.70703 914.31 630.298C 970.594 636.8889 1067.215 615.09796 1112.526 571.00696C 1157.837 526.91595 1161.038 512.235 1160.927 497.7z" stroke="none" fill="#EAAD03" fill-rule="nonzero" />
                <path transform="matrix(1 0 0 1 -714.843 -423.446)"  d="M750.276 436.139C 747.864 431.208 744.005 429.446 737.134 426.86902C 732.8148 425.35513 728.3648 424.2444 723.84094 423.55103C 720.67786 423.03116 717.52264 424.52002 715.91296 427.29202C 717.04694 437.14102 731.594 439.55704 741.428 438.92303C 746.764 438.578 749.181 437.292 750.276 436.139z" stroke="none" fill="#1D164D" fill-rule="nonzero" />
                <path transform="matrix(1 0 0 1 -718.936 -423.671)"  d="M1164.185 449.83C 1161.6531 448.7283 1158.9767 447.9939 1156.237 447.649C 1156.4148 452.32593 1158.0685 456.82657 1160.961 460.50598L1160.961 460.50598L1170.368 469.034C 1170.368 469.034 1172.863 453.575 1164.185 449.83z" stroke="none" fill="#1D164D" fill-rule="nonzero" />
			</g>
		</g>
		<g transform="matrix(1 0 0 1 651.054 590.875)">
			<g transform="matrix(1 0 0 1 0 0)">
                <path transform="matrix(1 0 0 1 -644.385 -542.857)"  d="M739.931 582.328C 764.06104 618.159 748.51904 637.256 723.539 645.896C 698.55896 654.536 669.886 651.223 656.139 639.025C 642.39197 626.827 651.46497 610.65204 651.46497 610.65204C 658.29 611.66504 665.714 600.88605 666.74396 588.752C 667.7739 576.618 680.063 571.813 678.444 568.052C 676.82495 564.291 669.365 565.571 669.365 565.571C 669.365 565.571 676.47797 550.63196 685.733 544.67096C 694.988 538.70996 715.8 546.5 739.931 582.328z" stroke="none" fill="url(#3882)" />
                <path transform="matrix(1 0 0 1 -644.385 -543.493)"  d="M716.9 643.345C 709.94403 647.095 704.76 648.717 705.82 638.78894C 706.88 628.8609 704.839 622.39795 700.955 621.05493C 697.07104 619.7119 700.508 624.49396 691.255 627.8079C 684.478 630.2359 696.329 639.9699 671.29 639.4719C 651.948 639.08795 651.466 611.2909 651.466 611.2909L651.466 611.2909L651.46 611.2959C 651.348 611.4959 642.476 627.5379 656.13904 639.6589C 669.88806 651.8589 698.551 655.16486 723.53906 646.52985C 724.4624 646.2105 725.3721 645.8772 726.26807 645.52985C 722.841 643.8 720.413 641.449 716.9 643.345z" stroke="none" fill="#C7283A" fill-rule="nonzero" />
                <path transform="matrix(1 0 0 1 -644.58 -542.857)"  d="M740.127 582.328C 756.093 606.046 754.687 622.423 744.671 633.298C 746.1513 626.34406 744.50635 619.0909 740.171 613.456C 727.594 596.104 709.07104 611.811 709.14 591.363C 709.209 570.915 707.911 570.10297 699.222 571.01996C 690.53296 571.93695 699.09296 564.81995 696.09296 556.3C 696.048 556.1541 695.99146 556.01196 695.92395 555.875C 694.772 552.981 693.5029 553.937 692.06195 556.104C 689.81195 559.521 687.15094 565.961 683.90796 565.152C 678.51996 563.813 682.842 573.381 671.96295 577.32495C 675.5629 572.95197 679.613 570.31494 678.6359 568.05597C 677.0169 564.29596 669.55695 565.57495 669.55695 565.57495C 669.55695 565.57495 676.6699 550.6359 685.9249 544.6749C 695.17993 538.7139 716 546.5 740.127 582.328z" stroke="none" fill="url(#4112)" />
                <path transform="matrix(1 0 0 1 -644.346 -543.068)"  d="M657.54 581.51C 657.54 581.51 653.771 580.37604 650.308 575.43C 646.845 570.48395 645.677 570.536 644.57996 572.477C 643.4829 574.41797 646.066 582.516 656.06396 586.555C 656.06396 586.555 646.92596 599.029 651.42596 610.867C 658.251 611.879 665.67596 601.093 666.704 588.967C 667.732 576.84094 680.01996 572.027 678.404 568.26697C 676.788 564.50696 669.32 565.78796 669.32 565.78796C 669.32 565.78796 662.163 568.048 657.54 581.51z" stroke="none" fill="url(#4343)" />
				<g transform="matrix(1 0 0 1 24.418 10.174)">
                    <path transform="matrix(1 0 0 1 -668.993 -553.884)"  d="M675.132 635.993C 675.73834 636.2833 676.1323 636.8873 676.1537 637.55914C 676.1751 638.231 675.8203 638.8588 675.23376 639.18713C 674.64716 639.5155 673.9265 639.48956 673.365 639.12C 672.502 638.633 668.993 634.587 668.993 634.587C 668.993 634.587 674.268 635.505 675.132 635.993z" stroke="none" fill="#FBDA91" fill-rule="nonzero" />
                    <path transform="matrix(1 0 0 1 -669.094 -553.734)"  d="M685.941 619.919C 686.5473 620.20935 686.9413 620.81335 686.96265 621.48517C 686.9841 622.15704 686.6293 622.78485 686.0427 623.11316C 685.4561 623.4415 684.7355 623.4156 684.17395 623.046C 683.311 622.55804 679.80194 618.512 679.80194 618.512C 679.80194 618.512 685.079 619.431 685.941 619.919z" stroke="none" fill="#FBDA91" fill-rule="nonzero" />
                    <path transform="matrix(1 0 0 1 -669.315 -553.705)"  d="M709.769 616.8C 710.3669 617.0955 710.7524 617.6974 710.77075 618.3641C 710.7891 619.0307 710.4374 619.65295 709.8567 619.9809C 709.27594 620.3089 708.56146 620.28894 708 619.929C 707.137 619.442 703.628 615.396 703.628 615.396C 703.628 615.396 708.906 616.315 709.769 616.8z" stroke="none" fill="#FBDA91" fill-rule="nonzero" />
                    <path transform="matrix(1 0 0 1 -669.387 -553.251)"  d="M718.473 567.517C 719.1547 567.699 719.66956 568.2589 719.7938 568.95337C 719.918 569.6479 719.6293 570.35156 719.053 570.75854C 718.4767 571.1655 717.717 571.2024 717.104 570.853C 716.056 570.42303 711.404 566.56604 711.404 566.56604C 711.404 566.56604 717.424 567.087 718.473 567.517z" stroke="none" fill="#F9E2B2" fill-rule="nonzero" />
                    <path transform="matrix(1 0 0 1 -669.373 -553.488)"  d="M716.02 593.468C 716.62866 593.75696 717.025 594.3616 717.0472 595.035C 717.06934 595.7084 716.71356 596.33777 716.1252 596.6661C 715.5368 596.9943 714.81433 596.96655 714.253 596.594C 713.39 596.107 709.881 592.061 709.881 592.061C 709.881 592.061 715.156 592.979 716.02 593.468z" stroke="none" fill="#F9E2B2" fill-rule="nonzero" />
                    <path transform="matrix(1 0 0 1 -669.23 -553.343)"  d="M700.663 577.807C 701.26935 578.0973 701.6633 578.7013 701.6847 579.3731C 701.7061 580.045 701.3513 580.6728 700.7648 581.0011C 700.17816 581.32947 699.4575 581.3035 698.896 580.934C 698.033 580.44604 694.524 576.4 694.524 576.4C 694.524 576.4 699.8 577.318 700.663 577.807z" stroke="none" fill="#FBDA91" fill-rule="nonzero" />
                    <path transform="matrix(1 0 0 1 -669.209 -553.136)"  d="M696.136 555.98C 695.297 556.097 693.646 556.18 692.274 556.209C 693.715 554.042 694.984 553.086 696.136 555.98z" stroke="none" fill="#FBDA91" fill-rule="nonzero" />
                    <path transform="matrix(1 0 0 1 -669.188 -553.127)"  d="M697.982 554.055C 698.182 554.784 697.535 555.611 696.523 555.893C 696.3885 555.9261 696.25226 555.9518 696.115 555.97003C 694.963 553.07605 693.694 554.03204 692.253 556.19904C 691.11096 556.247 690.161 556.25604 690.023 556.25806C 691.8844 555.13947 693.80634 554.12494 695.78 553.21906C 696.6194 552.8617 697.5912 553.23065 697.982 554.055z" stroke="none" fill="#F9E2B2" fill-rule="nonzero" />
                    <path transform="matrix(1 0 0 1 -669.404 -553.855)"  d="M719.371 632.857C 719.9796 633.14594 720.376 633.75055 720.39813 634.42395C 720.4203 635.09735 720.0645 635.72675 719.47614 636.05505C 718.88776 636.3833 718.1653 636.3555 717.60394 635.983C 716.74097 635.496 713.23193 631.449 713.23193 631.449C 713.23193 631.449 718.508 632.368 719.371 632.857z" stroke="none" fill="#FBDA91" fill-rule="nonzero" />
				</g>
                <path transform="matrix(1 0 0 1 -644.401 -543.18)"  d="M671.778 577.648C 671.705 577.642 668.736 577.433 664.237 585.567C 659.68097 593.802 659.624 600.599 656.515 602.067C 654.778 602.887 652.778 599.674 651.351 596.681C 649.82806 601.3335 649.8737 606.3571 651.481 610.981C 658.306 611.994 665.731 601.20703 666.75903 589.081C 667.1964 584.83923 668.9516 580.841 671.778 577.648z" stroke="none" fill="#6BBC61" fill-rule="nonzero" />
			</g>
		</g>
		<g transform="matrix(1 0 0 1 788.681 438.996)">
			<g transform="matrix(1 0 0 1 0 0)">
				<g transform="matrix(1 0 0 1 82.343 42.43)">
                    <path transform="matrix(1 0 0 1 -866.38 -422.38)"  d="M866.38 447.881L888.413 458.41202L888.413 444.047L870.3 425.461C 869.13354 424.26596 867.81445 423.23 866.377 422.38L866.377 422.38L866.38 447.881z" stroke="none" fill="url(#4575)" />
					<g transform="matrix(1 0 0 1 0 12.642)">
                        <path transform="matrix(1 0 0 1 -866.38 -435.141)"  d="M878.14 451.224C 874.05304 448.995 875.911 444.908 870.834 442.555C 867.234 440.88498 866.502 437.16498 866.381 435.141L866.381 435.141L866.381 448L888.414 458.531L882.414 438.004C 878.965 441.689 878.14 451.224 878.14 451.224z" stroke="none" fill="#C9E2F4" fill-rule="nonzero" />
					</g>
				</g>
                <path transform="matrix(1 0 0 1 -783.543 -379.875)"  d="M909.923 474.515C 908.467 474.59402 905.475 474.59402 901.72296 474.565L901.72296 474.565L901.15796 474.555C 889.86395 474.44598 872.19995 473.97998 867.45795 473.85498C 867.18097 473.85498 866.94293 473.84497 866.75793 473.835L866.75793 473.835L866.25793 473.82498L866.25793 482.86L813.26 482.86L823.038 429.748L823.197 428.90598C 823.94183 424.87515 826.7075 421.51077 830.518 420L830.518 420L834.59 418.385L834.60004 418.385L845.03204 414.254L857.009 419L861.824 420.5C 863.2453 420.9405 864.609 421.54913 865.886 422.313L865.886 422.313L865.886 457.1L901.72 464.728C 903.2056 465.05576 904.7265 465.1955 906.24695 465.14398C 909.1 464.41098 908.77295 462.87497 909.59595 463.61798C 910.41895 464.361 908.7739 466.83798 908.7739 466.83798C 915.61993 468.32397 918.0969 464.857 919.5029 466.184C 920.90894 467.511 916.452 474.188 909.923 474.515z" stroke="none" fill="url(#4802)" />
                <path transform="matrix(1 0 0 1 -783.652 -380.096)"  d="M866.362 474.042L866.362 483.077L854.741 483.077C 856.158 481.69998 856.32605 480.303 853.23505 479.362C 845.0621 476.885 841.34705 477.628 840.356 470.44598C 839.365 463.26398 825.287 464.10498 825.991 452.61298C 826.2328 447.73077 825.907 442.837 825.02 438.02997C 825.4955 439.10294 826.05524 440.1365 826.69403 441.12097L826.69403 441.12097L844.111 467.90997C 846.1149 470.98328 849.4499 472.9327 853.111 473.17096L853.111 473.17096L866.362 474.042z" stroke="none" fill="#4099F1" fill-rule="nonzero" />
                <path transform="matrix(1 0 0 1 -783.776 -379.552)"  d="M846.177 406.249C 846.177 406.249 845.764 404.763 841.719 401.21298C 837.674 397.66296 836.27 387.921 843.37 387.09497C 843.37 387.09497 843.618 381.64597 848.901 380.73798C 854.184 379.83 865.248 381.15097 869.54 379.66498C 873.832 378.179 871.521 391.636 862.193 396.42398C 856.61035 399.28345 851.2558 402.56818 846.177 406.249z" stroke="none" fill="url(#5032)" />
                <path transform="matrix(1 0 0 1 -783.814 -379.656)"  d="M864.3 390.75C 864.3 390.75 864.46497 404.372 863.8 408.417C 863.135 412.46198 860.415 413.206 857.278 412.46298L857.278 412.46298L857.278 418.779L854.306 423.113L845.306 414.031L845.306 401.813C 845.306 401.813 841.75604 400.595 842.62305 397.43698C 843.49005 394.27896 847.08105 394.589 848.19604 398.119C 849.64264 396.22 850.13025 393.75906 849.517 391.452C 849.517 391.452 857.195 394.96 864.3 390.75z" stroke="none" fill="url(#5260)" />
                <path transform="matrix(1 0 0 1 -783.88 -379.822)"  d="M849.583 408.583C 849.583 408.583 851.461 414.96802 857.344 415.207L857.344 415.207L857.344 412.629C 857.344 412.629 852.184 411.844 849.583 408.583z" stroke="none" fill="#1D164D" fill-rule="nonzero" />
                <path transform="matrix(1 0 0 1 -783.323 -380.518)"  d="M866.033 483.5L866.033 610.5L852.633 610.5L837.55 523.95L803.46 610.5L789.64 610.5L813.04004 483.5L866.033 483.5z" stroke="none" fill="url(#5488)" />
                <path transform="matrix(1 0 0 1 -784.18 -379.863)"  d="M973.143 482.845C 953.824 521.482 929.552 517.351 909.73804 499.855C 889.9241 482.359 878.7 455.769 882.553 437.8C 886.40594 419.83096 904.953 419.76898 904.953 419.76898C 907.43 426.20898 920.467 427.369 931.534 422.29498C 942.601 417.22098 952.834 425.554 955.311 422.29498C 957.78796 419.03598 953 413.169 953 413.169C 953 413.169 969.505 412.01 979.254 417.13202C 989.00305 422.25403 992.462 444.208 973.143 482.845z" stroke="none" fill="url(#5718)" />
                <path transform="matrix(1 0 0 1 -784.18 -379.926)"  d="M909.242 492.568C 902.555 488.357 898.592 484.642 907.756 480.68C 916.92 476.718 921.544 471.761 920.80096 467.719C 920.0579 463.677 917.587 469.01898 910.15094 462.6C 904.70197 457.894 902.05994 473 890.17194 450.959C 880.98895 433.932 904.94995 419.834 904.94995 419.834L904.94995 419.834L904.94196 419.834C 904.712 419.834 886.38293 420.006 882.553 437.86502C 878.699 455.83603 889.92395 482.41702 909.738 499.92303C 910.4713 500.56973 911.2103 501.19705 911.95496 501.80502C 911.771 497.968 912.625 494.7 909.242 492.568z" stroke="none" fill="#C7283A" fill-rule="nonzero" />
                <path transform="matrix(1 0 0 1 -784.373 -380.336)"  d="M910.753 474.976C 917.282 474.64902 921.74 467.962 920.333 466.644C 918.926 465.32602 916.45 468.78403 909.604 467.298C 909.604 467.298 911.249 464.821 910.426 464.078C 909.603 463.335 909.926 464.871 907.077 465.604C 905.5559 465.65164 904.03485 465.50955 902.549 465.181L902.549 465.181L902.549 475.023C 906.307 475.058 909.3 475.051 910.753 474.976z" stroke="none" fill="url(#5948)" />
                <path transform="matrix(1 0 0 1 -783.303 -381.71)"  d="M789.62 611.69L803.44 611.69L798.893 623.222L787.5 623.222L789.62 611.69z" stroke="none" fill="url(#6179)" />
                <path transform="matrix(1 0 0 1 -783.914 -381.71)"  d="M866.624 611.69L866.624 623.222L855.231 623.222L853.22 611.69L866.624 611.69z" stroke="none" fill="url(#6410)" />
                <path transform="matrix(1 0 0 1 -783.634 -379.913)"  d="M901.812 464.755L901.812 474.6L901.247 474.59L867.547 473.88998L866.847 473.87L866.347 473.86L853.09296 472.99197C 849.42993 472.75388 846.09406 470.80127 844.09296 467.72397L844.09296 467.72397L826.67395 440.93796C 824.5098 437.60635 823.2845 433.75266 823.12695 429.78296L823.12695 429.78296L823.28595 428.94095C 824.0307 424.9101 826.7963 421.5457 830.60693 420.03494L830.60693 420.03494L834.67896 418.41995L834.91693 418.41995C 839.3865 418.42163 843.4127 421.1216 845.11096 425.25595L845.11096 425.25595L856.11694 455.03894L865.97595 457.13895L901.812 464.755z" stroke="none" fill="url(#6640)" />
                <path transform="matrix(1 0 0 1 -783.773 -380.645)"  d="M848.606 497.152L838 524.077L841.125 542.01404L848.606 497.152z" stroke="none" fill="#1D164D" fill-rule="nonzero" />
				<g transform="matrix(1 0 0 1 0 234.463)">
                    <path transform="matrix(1 0 0 1 -783.264 -616.215)"  d="M788.756 616.215C 786.9531 616.21466 785.40717 617.5019 785.081 619.275L785.081 619.275L783.32697 628.799C 783.1242 629.9011 783.42163 631.0364 784.1387 631.8975C 784.8557 632.7587 785.91833 633.2568 787.03894 633.257L787.03894 633.257L824.36395 633.257C 825.1844 633.2565 825.84937 632.5915 825.85 631.771C 825.8501 630.6144 825.17456 629.56433 824.12195 629.085L824.12195 629.085L800.75195 618.44604C 800.75195 618.44604 791.456 623.362 788.756 616.215z" stroke="none" fill="url(#6870)" />
                    <path transform="matrix(1 0 0 1 -783.433 -616.25)"  d="M804.695 623.305C 806.2716 622.7338 807.9579 622.5307 809.625 622.711C 810.195 622.841 810.363 622.996 810.38 623.045C 810.441 623.224 809.946 623.836 809.68 624.164C 809.128 624.84503 808.503 625.616 808.64 626.43C 808.73865 626.9055 809.04346 627.3126 809.472 627.541C 809.8903 627.8189 810.37976 627.9706 810.88196 627.978C 811.9322 627.84534 812.91644 627.3937 813.70197 626.684C 814.4064 626.1113 815.2072 625.6687 816.06696 625.377L816.06696 625.377L814.80994 624.804C 814.2202 625.11707 813.6565 625.4765 813.12396 625.879C 811.803 626.827 811.009 627.33105 809.99695 626.70105C 809.8156 626.61475 809.6781 626.45734 809.61694 626.26605C 809.55493 625.892 810.05096 625.27905 810.4489 624.788C 810.8768 624.3533 811.1895 623.81885 811.3589 623.23303L811.3589 623.23303L807.8589 621.64C 806.6969 621.7716 805.5494 622.00964 804.4309 622.351C 803.7978 622.5614 803.1424 622.69794 802.4779 622.758C 802.49744 622.6388 802.531 622.5223 802.5779 622.411C 803.01886 621.293 804.3119 620.796 805.52686 620.578L805.52686 620.578L804.1088 619.933C 803.0203 620.2425 802.1231 621.0153 801.6558 622.04596C 801.5648 622.27496 801.2898 622.97 801.70483 623.43097C 802.207 623.987 803.2 623.719 804.695 623.305z" stroke="none" fill="#FFFFFF" fill-rule="nonzero" />
				</g>
                <path transform="matrix(1 0 0 1 -784.642 -379.863)"  d="M973.6 482.845C 960.81 508.415 945.86 515.251 931.46497 511.883C 938.2491 509.75046 943.7559 504.74854 946.529 498.2C 955.445 478.713 932.659 470.32202 950.492 460.315C 968.325 450.30798 968.392 448.783 963.322 441.67C 958.252 434.55704 968.65204 438.51 974.596 431.704C 974.7006 431.5925 974.7966 431.47314 974.883 431.34702C 976.835 428.92 975.383 428.286 972.783 428.09702C 968.70105 427.82 961.783 428.67203 960.89404 425.45203C 959.408 420.10202 953.20605 428.57303 944.41907 421.04303C 949.9971 422.02402 954.2861 424.25302 955.7731 422.29102C 958.25006 419.032 953.4651 413.16702 953.4651 413.16702C 953.4651 413.16702 969.9701 412.00803 979.7191 417.13004C 989.46814 422.25204 992.923 444.208 973.6 482.845z" stroke="none" fill="url(#7088)" />
				<g transform="matrix(1 0 0 1 64.597 234.463)">
                    <path transform="matrix(1 0 0 1 -848.467 -616.215)"  d="M853.959 616.215C 852.1561 616.21466 850.61017 617.5019 850.284 619.275L850.284 619.275L848.53 628.8C 848.3272 629.9021 848.62463 631.03735 849.3417 631.8985C 850.0587 632.7597 851.12134 633.25775 852.242 633.258L852.242 633.258L889.567 633.258C 890.3875 633.25745 891.0525 632.59247 891.05304 631.772C 891.053 630.6152 890.377 629.56506 889.32404 629.086L889.32404 629.086L866.58 618.563C 866.58 618.563 856.659 623.362 853.959 616.215z" stroke="none" fill="none" />
                    <path transform="matrix(1 0 0 1 -848.636 -616.248)"  d="M866.917 623.285C 867.433 623.85895 868.454 623.58496 869.99896 623.15497C 871.56793 622.72296 873.52094 622.186 875.08594 622.542C 875.67395 622.67596 875.84796 622.836 875.8649 622.88696C 875.92896 623.071 875.4179 623.70197 875.14496 624.04095C 874.57495 624.74097 873.92993 625.54095 874.07196 626.37897C 874.1741 626.86896 874.48834 627.2884 874.92993 627.524C 875.3613 627.8107 875.866 627.9673 876.3839 627.975C 877.4674 627.8381 878.483 627.37256 879.2939 626.641C 879.94977 626.12726 880.6745 625.7082 881.4469 625.396L881.4469 625.396L880.2199 624.828C 879.6924 625.1234 879.1837 625.4514 878.6969 625.81C 877.3339 626.789 876.5139 627.31 875.4699 626.659C 875.2828 626.57025 875.1411 626.40753 875.0789 626.21C 875.0149 625.825 875.5269 625.192 875.9379 624.685C 876.3218 624.2696 876.6225 623.7845 876.8239 623.256L876.8239 623.256L872.96893 621.47296C 871.87177 621.622 870.78784 621.856 869.7269 622.173C 869.07416 622.3906 868.3983 622.53186 867.71295 622.594C 867.7313 622.47064 867.7649 622.35004 867.8129 622.235C 868.3857 621.1925 869.4385 620.5023 870.6229 620.393L870.6229 620.393L869.2309 619.749C 868.17645 620.08234 867.3145 620.85004 866.8619 621.859C 866.773 622.092 866.489 622.809 866.917 623.285z" stroke="none" fill="#FFFFFF" fill-rule="nonzero" />
				</g>
                <path transform="matrix(1 0 0 1 -784.397 -379.693)"  d="M933.732 410.477C 933.732 410.477 932.865 406.638 935.466 401.189C 938.067 395.74 937.447 394.749 935.218 394.749C 932.989 394.749 927.21 400.983 928.61304 411.673C 928.61304 411.673 913.257 409.857 905.16705 419.599C 907.64404 426.039 920.6871 427.199 931.75104 422.122C 942.815 417.045 953.051 425.37802 955.528 422.122C 958.005 418.866 953.216 413 953.216 413C 953.216 413 947.726 407.877 933.732 410.477z" stroke="none" fill="url(#7318)" />
				<g transform="matrix(1 0 0 1 107.415 46.323)">
                    <path transform="matrix(1 0 0 1 -891.687 -426.498)"  d="M895.278 452.568C 895.3256 453.2398 894.9942 453.88196 894.419 454.23236C 893.8439 454.58276 893.1212 454.58276 892.5461 454.23236C 891.9709 453.88196 891.63947 453.2398 891.687 452.568C 891.687 451.576 893.487 446.531 893.487 446.531C 893.487 446.531 895.278 451.577 895.278 452.568z" stroke="none" fill="#FBDA91" fill-rule="nonzero" />
                    <path transform="matrix(1 0 0 1 -891.866 -426.512)"  d="M914.591 454.068C 914.6386 454.7398 914.3072 455.38196 913.732 455.73236C 913.15686 456.08276 912.4342 456.08276 911.8591 455.73236C 911.2839 455.38196 910.95245 454.7398 911 454.068C 911 453.076 912.8 448.031 912.8 448.031C 912.8 448.031 914.591 453.077 914.591 454.068z" stroke="none" fill="#FBDA91" fill-rule="nonzero" />
                    <path transform="matrix(1 0 0 1 -892.001 -426.69)"  d="M929.028 473.279C 928.9613 474.2214 928.1773 474.9518 927.23254 474.9518C 926.2878 474.9518 925.5038 474.2214 925.437 473.279C 925.437 472.287 927.237 467.242 927.237 467.242C 927.237 467.242 929.028 472.288 929.028 473.279z" stroke="none" fill="#FBDA91" fill-rule="nonzero" />
                    <path transform="matrix(1 0 0 1 -892.44 -426.53)"  d="M976.225 456.6C 976.4034 457.28333 976.16986 458.00812 975.62616 458.45883C 975.08246 458.90955 974.32697 459.0046 973.68854 458.7026C 973.0501 458.4006 972.6444 457.75623 972.64795 457.05002C 972.5059 455.92603 973.57495 449.98 973.57495 449.98C 973.57495 449.98 976.085 455.477 976.225 456.6z" stroke="none" fill="#F9E2B2" fill-rule="nonzero" />
                    <path transform="matrix(1 0 0 1 -892.218 -426.634)"  d="M952.419 467.237C 952.3523 468.1794 951.5683 468.90982 950.62354 468.90982C 949.6788 468.90982 948.8948 468.1794 948.828 467.237C 948.828 466.245 950.628 461.2 950.628 461.2C 950.628 461.2 952.419 466.246 952.419 467.237z" stroke="none" fill="#F9E2B2" fill-rule="nonzero" />
                    <path transform="matrix(1 0 0 1 -892.275 -426.438)"  d="M958.5 446.162C 958.4332 447.1044 957.64923 447.8348 956.70447 447.8348C 955.7597 447.8348 954.9757 447.1044 954.909 446.162C 954.909 445.16998 956.709 440.125 956.709 440.125C 956.709 440.125 958.5 445.171 958.5 446.162z" stroke="none" fill="#FBDA91" fill-rule="nonzero" />
                    <path transform="matrix(1 0 0 1 -892.444 -426.328)"  d="M975.27 431.49C 974.755 430.81598 973.87 429.41898 973.17004 428.24C 975.766 428.428 977.222 429.062 975.27 431.49z" stroke="none" fill="#FBDA91" fill-rule="nonzero" />
                    <path transform="matrix(1 0 0 1 -892.434 -426.31)"  d="M977.845 432.155C 977.0976 432.6685 976.0791 432.50723 975.527 431.788C 975.43207 431.68713 975.34265 431.58133 975.259 431.471C 977.211 429.044 975.759 428.41 973.159 428.221C 972.559 427.25 972.079 426.428 972.01 426.30902C 973.9001 427.37897 975.72925 428.55313 977.489 429.82602C 978.2136 430.38095 978.3707 431.409 977.845 432.155z" stroke="none" fill="#F9E2B2" fill-rule="nonzero" />
                    <path transform="matrix(1 0 0 1 -891.915 -426.842)"  d="M919.778 489.537C 919.7113 490.4794 918.9273 491.2098 917.98254 491.2098C 917.0378 491.2098 916.2538 490.4794 916.187 489.537C 916.187 488.54498 917.987 483.5 917.987 483.5C 917.987 483.5 919.778 488.546 919.778 489.537z" stroke="none" fill="#FBDA91" fill-rule="nonzero" />
				</g>
                <path transform="matrix(1 0 0 1 -784.397 -379.859)"  d="M944.171 421.035C 944.14 420.96802 942.861 418.281 933.57104 418.366C 924.15906 418.452 918.215 421.747 915.408 419.766C 913.84 418.65698 915.65204 415.336 917.556 412.619C 912.7564 413.58264 908.4056 416.09442 905.171 419.76898C 907.648 426.20898 920.69104 427.369 931.755 422.292C 935.66064 420.58585 940.0027 420.14627 944.171 421.035z" stroke="none" fill="#6BBC61" fill-rule="nonzero" />
			</g>
		</g>
		<g transform="matrix(1 0 0 1 952.454 444.953)">
			<g transform="matrix(1 0 0 1 0 0)">
                <path transform="matrix(1 0 0 1 -944.997 -396.56)"  d="M1075.05 631.541L1059.625 631.541L1033.225 578.836C 1031.5197 575.42444 1030.1432 571.8584 1029.114 568.186L1029.114 568.186L1022.179 543.508L1017.651 560.974L1013.751 631.542L998.8 631.542L994.035 557.19C 993.9456 555.7414 994.00525 554.2875 994.21295 552.851L994.21295 552.851L999.62195 516.62103L999.62195 503L1007.04193 502.673L1049.4739 503L1050.6329 551.545L1052.4459 565.91L1075.05 631.541z" stroke="none" fill="url(#7548)" />
                <path transform="matrix(1 0 0 1 -945.218 -396.726)"  d="M1017.873 561.139L1022.401 543.66797L1018.187 520.508L1017.873 561.139z" stroke="none" fill="#1D164D" fill-rule="nonzero" />
                <path transform="matrix(1 0 0 1 -945.001 -395.565)"  d="M994.5 449.122C 994.5 449.122 999.082 445.778 998.958 430.54602C 998.83405 415.31403 996.729 402.682 1003.911 397.85303C 1011.093 393.02405 1019.019 396.61502 1019.948 401.44403C 1019.948 401.44403 1022.982 398.96704 1024.963 401.56802C 1026.9441 404.169 1026.697 422.579 1038.585 432.65103C 1050.4729 442.72305 1050.308 454.45102 1044.0339 460.06104C 1037.7599 465.67105 994.5 449.122 994.5 449.122z" stroke="none" fill="url(#7777)" />
                <path transform="matrix(1 0 0 1 -944.537 -395.925)"  d="M1066.852 543.971C 1051.0011 558.83203 1024.499 552.887 1024.499 552.887C 1018.06 533.32104 1015.499 502.36102 1015.499 502.36102L1015.499 502.36102L1006.583 502.03104C 1006.9464 519.6713 1009.21594 537.22064 1013.352 554.37305C 997.996 554.046 990.566 544.46606 990.566 544.46606C 998.492 523.1661 999.859 493.32605 999.859 493.32605L999.859 493.32605L967.146 494.32605L963.441 494.43506C 959.5909 494.8582 955.6948 494.46323 952.008 493.27606C 945.408 491.29507 943.092 486.26205 945.408 486.67606C 947.72406 487.09006 955.771 486.20004 955.771 486.20004C 954.523 484.83304 954.592 481.93005 955.147 481.93005C 955.70197 481.93005 956.078 483.59406 958.30695 484.03006C 959.8439 484.35532 961.3542 484.7959 962.82495 485.34805L962.82495 485.34805L973.86096 482.76205L999.48096 476.76807L998.4899 468.67407L976.6749 476.86707C 979.56616 470.6718 982.02246 464.28265 984.02594 457.74606L984.02594 457.74606L996.621 444.7C 998.43616 442.82852 1000.5828 441.31015 1002.95197 440.22202L1002.95197 440.22202L1007.90497 437.963L1019.48596 434.307L1030.0969 436.655C 1031.4425 436.9573 1032.7418 437.4372 1033.9609 438.082C 1038.5908 440.5351 1041.6389 445.19144 1042.0349 450.41602C 1042.1239 451.605 1042.2349 452.87302 1042.3419 454.2L1042.3419 454.2L1042.3419 454.21002C 1043.273 465.53403 1044.809 481.187 1047.0419 493.769C 1051 516.231 1066.852 543.971 1066.852 543.971z" stroke="none" fill="url(#8007)" />
				<g transform="matrix(1 0 0 1 54.126 58.288)">
                    <path transform="matrix(1 0 0 1 -999.17 -454.896)"  d="" stroke="none" fill="#C9E2F4" fill-rule="nonzero" />
                    <path transform="matrix(1 0 0 1 -999.172 -454.4)"  d="M1045.487 480.168C 1045.4281 479.762 1044.754 476.443 1040.3651 474.957C 1035.6891 473.357 1030.2101 479.757 1027.7332 490.164C 1025.2562 500.571 1016.0132 502.548 1007.09717 502.221C 1001.67816 502.013 999.9242 503.915 999.37915 505.431C 1000.15216 498.318 1000.3702 493.513 1000.3702 493.513L1000.3702 493.513L1012.6 493.513C 1016.36334 493.51382 1019.85815 491.5639 1021.834 488.361L1021.834 488.361L1042.856 454.4C 1043.163 458.115 1043.5299 462.3 1043.976 466.685C 1044.422 471.07 1044.913 475.641 1045.487 480.168z" stroke="none" fill="#C9E2F4" fill-rule="nonzero" />
				</g>
                <path transform="matrix(1 0 0 1 -945.052 -395.977)"  d="M1026.739 439.92C 1023.0381 441.72412 1020.0813 444.76117 1018.377 448.509L1018.377 448.509L1012.205 462.141L1006.211 475.367L1005.597 475.516L999.997 476.824C 1006.605 474.516 1002.642 466.424 1005.697 465.252C 1007.797 464.459 1010.07605 461.47702 1012.197 457.009C 1013.247 454.9945 1014.1581 452.91068 1014.924 450.772C 1017.548 442.877 1026.016 440.088 1026.739 439.92z" stroke="none" fill="#C9E2F4" fill-rule="nonzero" />
                <path transform="matrix(1 0 0 1 -945.105 -395.925)"  d="M1012.36 454.56C 1013.35297 440.11 1020.053 434.313 1020.053 434.313L1020.053 434.313L1008.474 437.966C 1008.474 437.966 1003.068 462.215 1007.153 502.032L1007.153 502.032L1016.06903 502.362C 1016.06903 502.362 1011.366 469.01 1012.36 454.56z" stroke="none" fill="url(#8236)" />
                <path transform="matrix(1 0 0 1 -945.105 -396.137)"  d="M1012.258 462.3L1006.264 475.526L1005.64996 475.675C 1005.6 472.009 1005.64996 468.59198 1005.74994 465.41098C 1007.8499 464.61798 1010.12897 461.636 1012.24994 457.16797C 1012.208 458.745 1012.208 460.469 1012.258 462.3z" stroke="none" fill="#B122E5" fill-rule="nonzero" />
                <path transform="matrix(1 0 0 1 -945.067 -395.704)"  d="M1016.113 410.5C 1016.113 410.5 1007.362 414.215 1001.66595 410.5C 1001.66595 410.5 1000.86597 428.967 1003.48193 431.387C 1004.8485 432.567 1006.7594 432.88565 1008.43494 432.21298L1008.43494 432.21298L1008.43494 437.744L1011.28296 441.64398L1020.014 434.09L1020.014 421.956C 1020.014 421.956 1024.575 418.88 1022.594 416.073C 1020.61304 413.266 1018.3 418.302 1018.3 419.788C 1018.0039 418.89148 1017.5101 418.07297 1016.855 417.393C 1015.618 415.949 1016.113 410.5 1016.113 410.5z" stroke="none" fill="url(#8466)" />
                <path transform="matrix(1 0 0 1 -945.131 -395.867)"  d="M1015 428.063C 1013.22296 430.0158 1010.98975 431.498 1008.5 432.37698L1008.5 432.37698L1008.5 435.62C 1013.356 434.182 1015 428.063 1015 428.063z" stroke="none" fill="#1D164D" fill-rule="nonzero" />
                <path transform="matrix(1 0 0 1 -944.537 -395.96)"  d="M1042.342 454.239L1042.342 454.24902L1021.32404 488.21503C 1019.34436 491.41473 1015.84973 493.362 1012.08704 493.36203L1012.08704 493.36203L999.861 493.36203L967.148 494.36203L963.443 494.47104C 959.5929 494.89417 955.69684 494.4992 952.01 493.31204C 945.41003 491.33105 943.094 486.29803 945.41003 486.71204C 947.7261 487.12604 955.773 486.23602 955.773 486.23602C 954.525 484.86902 954.594 481.96603 955.149 481.96603C 955.704 481.96603 956.08 483.63004 958.30896 484.06604C 959.84595 484.3913 961.35626 484.8319 962.82697 485.38403L962.82697 485.38403L973.863 482.79803L999.483 476.80405L1005.69495 475.34805L1017.86395 448.49506C 1020.72784 442.17496 1027.0253 438.11566 1033.964 438.11707C 1038.5939 440.57013 1041.642 445.22644 1042.038 450.45105C 1042.125 451.643 1042.233 452.911 1042.342 454.239z" stroke="none" fill="url(#8696)" />
                <path transform="matrix(1 0 0 1 -944.537 -396.372)"  d="M958.311 484.48C 956.082 484.044 955.70496 482.38 955.151 482.38C 954.59705 482.38 954.527 485.28 955.775 486.65C 955.775 486.65 947.721 487.53198 945.41205 487.126C 943.1031 486.72003 945.41205 491.743 952.012 493.726C 955.69885 494.91318 959.5949 495.30814 963.445 494.885L963.445 494.885L962.831 485.80002C 961.3596 485.2471 959.8487 484.80585 958.311 484.48z" stroke="none" fill="url(#8926)" />
                <path transform="matrix(1 0 0 1 -944.838 -396.072)"  d="M998.8 468.825L997.644 450.16702C 997.644 450.16702 993.975 459.579 993.74396 464.03702C 993.51294 468.49503 989.717 465.337 986.08496 468.484C 982.68494 471.431 985.07196 464.53302 982.54297 463.368C 981.04297 467.63202 979.211 472.17502 976.983 477.018L976.983 477.018L998.8 468.825z" stroke="none" fill="#C9E2F4" fill-rule="nonzero" />
                <path transform="matrix(1 0 0 1 -945.042 -397.77)"  d="M998.85 632.75L1013.79 632.75L1013.07697 645.629L999.67694 645.629L998.85 632.75z" stroke="none" fill="url(#9156)" />
                <path transform="matrix(1 0 0 1 -945.612 -397.77)"  d="M1080.094 645.629L1066.694 645.629L1060.244 632.75L1075.67 632.75L1080.094 645.629z" stroke="none" fill="none" />
				<g transform="matrix(1 0 0 1 31.517 237.453)">
                    <path transform="matrix(1 0 0 1 -976.35 -635.246)"  d="M1013.444 635.246C 1015.24677 635.2461 1016.7924 636.53314 1017.11896 638.30597L1017.11896 638.30597L1018.87195 647.82996C 1019.0751 648.9321 1018.77783 650.0676 1018.06067 650.9289C 1017.34357 651.79016 1016.2807 652.28815 1015.16 652.28796L1015.16 652.28796L977.836 652.28796C 977.4419 652.28796 977.0639 652.1314 976.7852 651.8527C 976.50653 651.57404 976.35 651.19604 976.35 650.80194C 976.34985 649.6454 977.0254 648.59534 978.078 648.11597L978.078 648.11597L998.925 637.47797C 998.925 637.47797 1010.744 642.394 1013.444 635.246z" stroke="none" fill="url(#9374)" />
					<g transform="matrix(1 0 0 1 9.253 2.909)">
                        <path transform="matrix(1 0 0 1 -985.69 -638.214)"  d="M987.368 645.4C 988.20764 646.15826 989.2595 646.641 990.38196 646.783C 990.91833 646.7749 991.44104 646.6128 991.88794 646.31604C 992.3455 646.07135 992.6713 645.6368 992.77795 645.129C 992.92395 644.25903 992.256 643.429 991.66595 642.708C 991.38324 642.389 991.1429 642.03467 990.9509 641.654L990.9509 641.654L989.99994 642.139C 990.22766 642.58484 990.5112 642.9999 990.84393 643.37396C 991.26996 643.899 991.7999 644.555 991.73395 644.95294C 991.6696 645.1576 991.5228 645.3262 991.3289 645.41797C 990.2479 646.092 989.3979 645.553 987.98694 644.53894C 987.61896 644.27496 987.2269 644.0109 986.81995 643.7609L986.81995 643.7609L985.6909 644.33795C 986.2778 644.646 986.8386 645.0012 987.368 645.4z" stroke="none" fill="#FFFFFF" fill-rule="nonzero" />
                        <path transform="matrix(1 0 0 1 -985.749 -638.182)"  d="M997.335 640.735C 996.2818 640.42505 995.20776 640.1911 994.12103 640.035L994.12103 640.035L992.07404 641.079C 993.76245 640.97107 995.4553 641.20233 997.05304 641.759C 998.653 642.201 999.71106 642.488 1000.24603 641.894C 1000.689 641.402 1000.395 640.659 1000.29803 640.415C 999.81195 639.33624 998.8803 638.5226 997.74603 638.186L997.74603 638.186L996.369 638.886C 997.60803 638.9951 998.71173 639.7128 999.314 640.80096C 999.36475 640.9198 999.40063 641.0444 999.421 641.17194C 998.7111 641.1076 998.0111 640.961 997.335 640.735z" stroke="none" fill="#FFFFFF" fill-rule="nonzero" />
					</g>
				</g>
				<g transform="matrix(1 0 0 1 93.808 237.453)">
                    <path transform="matrix(1 0 0 1 -1039.225 -635.246)"  d="M1076.319 635.246C 1078.1218 635.24567 1079.6678 636.5329 1079.994 638.30597L1079.994 638.30597L1081.748 647.82996C 1081.9508 648.93207 1081.6534 650.0673 1080.9364 650.92847C 1080.2194 651.7897 1079.1567 652.2877 1078.036 652.28796L1078.036 652.28796L1040.711 652.28796C 1039.8905 652.28735 1039.2256 651.6223 1039.2251 650.80194C 1039.2249 649.6451 1039.9009 648.59485 1040.9541 648.11597L1040.9541 648.11597L1062.3541 637.47797C 1062.3541 637.47797 1073.619 642.394 1076.319 635.246z" stroke="none" fill="url(#9600)" />
                    <path transform="matrix(1 0 0 1 -1039.225 -635.246)"  d="M1076.319 635.246C 1078.1218 635.24567 1079.6678 636.5329 1079.994 638.30597L1079.994 638.30597L1081.748 647.82996C 1081.9508 648.93207 1081.6534 650.0673 1080.9364 650.92847C 1080.2194 651.7897 1079.1567 652.2877 1078.036 652.28796L1078.036 652.28796L1040.711 652.28796C 1039.8905 652.28735 1039.2256 651.6223 1039.2251 650.80194C 1039.2249 649.6451 1039.9009 648.59485 1040.9541 648.11597L1040.9541 648.11597L1062.3541 637.47797C 1062.3541 637.47797 1073.619 642.394 1076.319 635.246z" stroke="none" fill="none" />
					<g transform="matrix(1 0 0 1 9.276 3.237)">
                        <path transform="matrix(1 0 0 1 -1048.588 -638.543)"  d="M1050.464 645.574C 1051.2806 646.311 1052.3036 646.78 1053.395 646.91797C 1053.9167 646.9103 1054.4253 646.7527 1054.86 646.464C 1055.3053 646.22675 1055.6222 645.80396 1055.725 645.31C 1055.8679 644.464 1055.218 643.661 1054.6439 642.954C 1054.3679 642.613 1053.8529 641.977 1053.918 641.79095C 1053.925 641.78 1053.9335 641.76996 1053.943 641.7609L1053.943 641.7609L1052.975 642.24194C 1053.1864 642.7409 1053.4806 643.2007 1053.845 643.6019C 1054.2589 644.1129 1054.775 644.74994 1054.71 645.1389C 1054.6476 645.3381 1054.5048 645.502 1054.3159 645.59094C 1053.2649 646.24695 1052.439 645.7219 1051.0659 644.73596C 1050.647 644.436 1050.1969 644.136 1049.7239 643.85895L1049.7239 643.85895L1048.5889 644.42395C 1049.2526 644.7402 1049.8811 645.1257 1050.464 645.574z" stroke="none" fill="#FFFFFF" fill-rule="nonzero" />
                        <path transform="matrix(1 0 0 1 -1048.643 -638.513)"  d="M1059.884 642.032C 1061.441 642.462 1062.4701 642.74097 1062.99 642.16296C 1063.42 641.68396 1063.135 640.96295 1063.04 640.72394C 1062.5432 639.6513 1061.6075 638.84534 1060.473 638.51294L1060.473 638.51294L1059.073 639.21295C 1060.32 639.44495 1061.631 639.962 1062.083 641.105C 1062.1324 641.221 1062.1677 641.3425 1062.188 641.467C 1061.4973 641.4041 1060.8162 641.26184 1060.158 641.04297C 1059.0667 640.7166 1057.9507 640.4792 1056.8209 640.33295L1056.8209 640.33295L1055.3619 641.0579L1054.4769 641.4979C 1054.5609 641.47095 1054.6449 641.44495 1054.7579 641.41895C 1056.336 641.057 1058.3 641.6 1059.884 642.032z" stroke="none" fill="#FFFFFF" fill-rule="nonzero" />
					</g>
				</g>
			</g>
		</g>
		<g transform="matrix(1 0 0 1 1066.177 390.856)">
			<g transform="matrix(1 0 0 1 0 0)">
                <path transform="matrix(1 0 0 1 -1063.364 -331.148)"  d="M1063.482 364.913C 1063.055 369.95898 1063.7041 375.966 1066.8461 380.672C 1066.999 380.9 1067.154 381.121 1067.3191 381.332C 1067.3383 381.3629 1067.3593 381.39264 1067.3821 381.421C 1067.5171 381.594 1067.6521 381.76797 1067.7881 381.934C 1067.8341 381.99 1067.8811 382.039 1067.9271 382.095C 1068.0461 382.229 1068.1592 382.361 1068.2731 382.486C 1068.342 382.555 1068.405 382.624 1068.473 382.686L1068.473 382.686L1068.7571 382.986C 1068.8451 383.061 1068.925 383.142 1069.0131 383.21698C 1069.1011 383.29196 1069.177 383.365 1069.2521 383.43698C 1069.352 383.516 1069.452 383.602 1069.5521 383.68198C 1069.6182 383.73798 1069.6862 383.79297 1069.7521 383.84198C 1069.863 383.93198 1069.977 384.01498 1070.086 384.09097C 1070.1481 384.13797 1070.206 384.17596 1070.27 384.21698C 1070.383 384.3 1070.505 384.37897 1070.623 384.44998C 1070.634 384.46097 1070.6471 384.465 1070.651 384.473C 1071.2837 384.48947 1071.9163 384.4409 1072.539 384.328C 1075.0692 383.86703 1077.2382 382.24902 1078.401 379.95502C 1081.335 374.24503 1082.892 364.55502 1077.355 356.816C 1076.2084 355.17468 1074.7799 353.74963 1073.136 352.607C 1072.2214 351.9775 1071.2072 351.50693 1070.136 351.215L1070.136 351.215L1070.0859 351.242C 1069.818 351.41 1069.5549 351.587 1069.3009 351.781C 1069.2875 351.78647 1069.2753 351.79465 1069.2649 351.805C 1067.9126 352.86258 1066.7803 354.17456 1065.9319 355.667C 1065.9319 355.673 1065.9209 355.67798 1065.9169 355.69098C 1065.7539 355.97397 1065.6029 356.262 1065.4669 356.54697C 1065.4574 356.55722 1065.4512 356.5701 1065.449 356.58395C 1065.3099 356.87494 1065.1799 357.16296 1065.0709 357.44894C 1064.2031 359.85275 1063.6685 362.3641 1063.482 364.913z" stroke="none" fill="url(#9824)" />
                <path transform="matrix(1 0 0 1 -1063.472 -331.465)"  d="M1079.257 395.055L1077.75 385.288L1075.002 385.649L1076.5089 395.416L1079.257 395.055z" stroke="none" fill="#B7C0E2" fill-rule="nonzero" />
                <path transform="matrix(0.2930893 -0.9560851 0.9560851 0.2930893 39.908 36.645)"  d="M0 21.908C 0 9.808545 8.580014 0 19.164 0C 29.747986 0 38.328 9.808545 38.328 21.908C 38.328 34.007458 29.747986 43.816 19.164 43.816C 8.580014 43.816 0 34.007458 0 21.908" stroke="none" fill="url(#10056)" />
                <path transform="matrix(1 0 0 1 -1063.848 -331.184)"  d="M1138.457 379.539L1136.225 368.478C 1136.225 368.478 1139.757 368.111 1139.598 363.715C 1139.4391 359.319 1133.245 359.854 1132.4711 364.081C 1130.6663 362.98547 1129.5723 361.02014 1129.592 358.909C 1129.7721 355.486 1129.214 354.85098 1128.3251 355.10098C 1127.4362 355.35098 1123.6741 360.63098 1120.103 360.17398C 1116.532 359.71698 1115.876 358.64597 1115.4651 359.796C 1115.0542 360.946 1117.2391 372.91998 1119.1141 376.452C 1120.0461 378.45184 1121.98 379.79736 1124.1791 379.97598L1124.1791 379.97598L1125.05 385.31497L1133.598 390.19598C 1133.598 390.19598 1142.078 384.417 1138.457 379.539z" stroke="none" fill="url(#10287)" />
                <path transform="matrix(1 0 0 1 -1063.749 -332.94)"  d="M1122.829 543.9L1122.129 546.179L1104.793 549.213L1127.421 556.15L1130.459 546.24005L1122.829 543.9z" stroke="none" fill="#1D164D" fill-rule="nonzero" />
                <path transform="matrix(1 0 0 1 -1063.552 -332.879)"  d="M1101.648 537.409L1100.948 539.688L1083.6119 542.722L1106.24 549.659L1109.278 539.749L1101.648 537.409z" stroke="none" fill="#1D164D" fill-rule="nonzero" />
                <path transform="matrix(1 0 0 1 -1063.652 -332.055)"  d="M1119.443 448.789C 1119.443 448.789 1099.632 477.674 1095.343 487.14C 1091.0541 496.60602 1101.7521 536.585 1101.7521 536.585L1101.7521 536.585L1109.3821 538.924C 1109.3821 538.924 1110.3881 511.057 1111.645 504.312C 1112.902 497.56702 1131.495 477.005 1131.495 477.005L1131.495 477.005L1142.834 458.74L1139.783 451.306L1119.443 448.789z" stroke="none" fill="url(#10518)" />
                <path transform="matrix(1 0 0 1 -1063.825 -332.027)"  d="M1164.39 449.268C 1164.39 449.268 1166.054 458.59 1160.558 471.978C 1155.062 485.366 1135.905 496.422 1133.7579 501.909C 1131.6108 507.396 1130.5339 545.329 1130.5339 545.329L1130.5339 545.329L1122.903 542.98895C 1122.903 542.98895 1114.966 506.50696 1113.039 495.01697C 1111.1119 483.52698 1135.9629 463.51196 1142.4729 445.68097L1142.4729 445.68097L1164.39 449.268z" stroke="none" fill="url(#10749)" />
                <path transform="matrix(1 0 0 1 -1063.487 -331.414)"  d="M1164.773 445.166C 1166.0842 446.83575 1166.2511 449.13425 1165.195 450.97598C 1163.454 454.38498 1130.162 455.193 1122.7269 453.72598C 1116.7799 452.55197 1115.5929 450.611 1115.9409 449.52597C 1116.3241 448.0944 1116.4718 446.61 1116.3779 445.13098L1116.3779 445.13098L1115.8939 414.93097C 1115.8939 414.93097 1106.304 428.63098 1100.2849 432.00195C 1094.2659 435.37292 1076.544 408.83896 1076.544 408.83896L1076.544 408.83896L1081.068 401.26895C 1081.068 401.26895 1094.009 414.65594 1096.519 415.54196C 1099.029 416.42798 1104.7041 401.70297 1107.0691 395.12396C 1109.4341 388.54495 1110.336 386.73395 1112.4471 385.52396C 1114.5582 384.31396 1124.2052 382.56696 1124.2052 382.56696C 1125.4048 385.20346 1128.0798 386.8526 1130.9742 386.73996C 1136.0033 386.59995 1138.0983 379.76395 1138.0983 379.76395C 1138.0983 379.76395 1155.4713 385.11896 1161.2032 386.84695C 1166.9352 388.57495 1184.5413 414.34695 1188.0942 422.04697C 1191.6472 429.74698 1195.4943 450.86697 1195.4943 450.86697L1195.4943 450.86697L1188.7893 453.44897C 1188.7893 453.44897 1178.1233 431.51196 1173.5613 425.59097C 1168.9993 419.66998 1158.1113 413.20197 1158.1113 413.20197L1158.1113 413.20197L1164.773 445.166z" stroke="none" fill="url(#10980)" />
                <path transform="matrix(1 0 0 1 -1063.481 -331.568)"  d="M1082.629 411.676L1080.2571 396.296L1075.93 396.86398L1078.302 412.244L1082.629 411.676z" stroke="none" fill="#414E6E" fill-rule="nonzero" />
                <path transform="matrix(1 0 0 1 -1063.486 -331.71)"  d="M1077.828 414.777L1083.143 414.077C 1083.4834 414.03195 1083.7888 413.84485 1083.9836 413.562C 1084.1783 413.2792 1084.2443 412.9271 1084.1649 412.593C 1084.0217 411.98706 1083.443 411.58807 1082.8259 411.66998L1082.8259 411.66998L1077.512 412.37C 1077.1713 412.41476 1076.8656 412.60178 1076.6707 412.88464C 1076.4756 413.1675 1076.4097 413.51974 1076.489 413.854C 1076.6328 414.45932 1077.211 414.8579 1077.828 414.777z" stroke="none" fill="#2C3449" fill-rule="nonzero" />
                <path transform="matrix(1 0 0 1 -1063.464 -331.546)"  d="M1075.52 397.147L1080.834 396.447C 1081.1747 396.40277 1081.4806 396.2161 1081.6759 395.93335C 1081.8711 395.6506 1081.9373 395.29834 1081.858 394.964C 1081.7142 394.35852 1081.1361 393.95963 1080.519 394.03998L1080.519 394.03998L1075.2041 394.74C 1074.8635 394.78473 1074.5579 394.97177 1074.363 395.25467C 1074.1682 395.5376 1074.1024 395.88986 1074.1821 396.224C 1074.3259 396.82883 1074.9034 397.2273 1075.52 397.147z" stroke="none" fill="#2C3449" fill-rule="nonzero" />
                <path transform="matrix(1 0 0 1 -1063.388 -331.154)"  d="M1069.3 351.809C 1067.9473 352.865 1066.8152 354.17648 1065.968 355.66898C 1066.8141 354.1757 1067.9463 352.86398 1069.3 351.809z" stroke="none" fill="#B7C0E2" fill-rule="nonzero" />
                <path transform="matrix(1 0 0 1 -1063.429 -331.458)"  d="M1070.336 384.524C 1070.4541 384.60498 1070.572 384.68597 1070.6901 384.75998C 1070.572 384.685 1070.454 384.605 1070.336 384.524z" stroke="none" fill="#B7C0E2" fill-rule="nonzero" />
                <path transform="matrix(1 0 0 1 -1063.424 -331.455)"  d="M1069.819 384.148C 1069.9299 384.233 1070.0399 384.31702 1070.152 384.398C 1070.04 384.317 1069.93 384.233 1069.819 384.148z" stroke="none" fill="#B7C0E2" fill-rule="nonzero" />
                <path transform="matrix(1 0 0 1 -1063.42 -331.149)"  d="M1070.149 351.242C 1069.8823 351.40735 1069.6204 351.58533 1069.363 351.776C 1069.6177 351.5847 1069.8796 351.40668 1070.149 351.242z" stroke="none" fill="#B7C0E2" fill-rule="nonzero" />
                <path transform="matrix(1 0 0 1 -1063.419 -331.451)"  d="M1069.314 383.736C 1069.414 383.82 1069.5139 383.90298 1069.614 383.98398C 1069.51 383.9 1069.412 383.82 1069.314 383.736z" stroke="none" fill="#B7C0E2" fill-rule="nonzero" />
                <path transform="matrix(1 0 0 1 -1063.401 -331.431)"  d="M1067.352 381.617C 1067.374 381.647 1067.3971 381.674 1067.4181 381.703C 1067.4 381.674 1067.374 381.647 1067.352 381.617z" stroke="none" fill="#B7C0E2" fill-rule="nonzero" />
                <path transform="matrix(1 0 0 1 -1063.41 -331.442)"  d="M1068.32 382.778C 1068.3849 382.84802 1068.4519 382.91602 1068.5199 382.984C 1068.452 382.916 1068.385 382.848 1068.32 382.778z" stroke="none" fill="#B7C0E2" fill-rule="nonzero" />
                <path transform="matrix(1 0 0 1 -1063.415 -331.447)"  d="M1068.814 383.28C 1068.8973 383.36002 1068.981 383.43835 1069.065 383.51498C 1068.981 383.438 1068.9 383.36 1068.814 383.28z" stroke="none" fill="#B7C0E2" fill-rule="nonzero" />
                <path transform="matrix(1 0 0 1 -1063.406 -331.437)"  d="M1067.832 382.225C 1067.878 382.28 1067.9241 382.331 1067.9711 382.385C 1067.924 382.331 1067.878 382.279 1067.832 382.225z" stroke="none" fill="#B7C0E2" fill-rule="nonzero" />
                <path transform="matrix(1 0 0 1 -1063.384 -331.19)"  d="M1065.949 355.726C 1065.7856 356.01135 1065.6344 356.29834 1065.495 356.587C 1065.6317 356.29834 1065.783 356.01135 1065.949 355.726z" stroke="none" fill="#B7C0E2" fill-rule="nonzero" />
                <path transform="matrix(1 0 0 1 -1063.365 -331.199)"  d="M1063.485 364.966C 1063.674 362.41516 1064.2123 359.90237 1065.085 357.49802C 1065.1959 357.21103 1065.325 356.92102 1065.4619 356.63202C 1065.324 356.92 1065.1979 357.21002 1065.0869 357.49603C 1064.2133 359.90088 1063.6742 362.4144 1063.485 364.966z" stroke="none" fill="#B7C0E2" fill-rule="nonzero" />
                <path transform="matrix(1 0 0 1 -1063.417 -331.449)"  d="M1069.067 383.517C 1069.1481 383.59 1069.229 383.663 1069.312 383.734C 1069.229 383.663 1069.148 383.59 1069.067 383.517z" stroke="none" fill="#B7C0E2" fill-rule="nonzero" />
                <path transform="matrix(1 0 0 1 -1063.412 -331.444)"  d="M1068.52 382.986C 1068.62 383.086 1068.713 383.186 1068.811 383.27698C 1068.713 383.183 1068.617 383.085 1068.52 382.986z" stroke="none" fill="#B7C0E2" fill-rule="nonzero" />
                <path transform="matrix(1 0 0 1 -1063.407 -331.438)"  d="M1067.972 382.386C 1068.086 382.51898 1068.201 382.65 1068.316 382.774C 1068.2 382.65 1068.086 382.519 1067.972 382.386z" stroke="none" fill="#B7C0E2" fill-rule="nonzero" />
                <path transform="matrix(1 0 0 1 -1063.364 -331.277)"  d="M1066.844 380.8C 1066.9973 381.03 1067.1543 381.25134 1067.315 381.464C 1067.1559 381.25098 1066.9989 381.03098 1066.846 380.802C 1063.7009 376.102 1063.0549 370.087 1063.4839 365.045C 1063.055 370.085 1063.7 376.1 1066.844 380.8z" stroke="none" fill="#B7C0E2" fill-rule="nonzero" />
                <path transform="matrix(1 0 0 1 -1063.402 -331.432)"  d="M1067.419 381.7C 1067.554 381.877 1067.69 382.05002 1067.828 382.216C 1067.689 382.054 1067.554 381.881 1067.419 381.7z" stroke="none" fill="#B7C0E2" fill-rule="nonzero" />
                <path transform="matrix(1 0 0 1 -1063.42 -331.154)"  d="M1069.363 351.781L1069.328 351.80902L1069.363 351.781z" stroke="none" fill="#B7C0E2" fill-rule="nonzero" />
                <path transform="matrix(1 0 0 1 -1063.422 -331.453)"  d="M1069.613 383.986C 1069.68 384.041 1069.749 384.094 1069.813 384.147C 1069.749 384.094 1069.68 384.041 1069.613 383.986z" stroke="none" fill="#B7C0E2" fill-rule="nonzero" />
                <path transform="matrix(1 0 0 1 -1063.427 -331.148)"  d="M1070.2 351.211L1070.1499 351.24C 1070.171 351.233 1070.186 351.221 1070.2 351.211z" stroke="none" fill="#B7C0E2" fill-rule="nonzero" />
                <path transform="matrix(1 0 0 1 -1063.388 -331.19)"  d="M1065.965 355.705L1065.953 355.72598L1065.965 355.705z" stroke="none" fill="#B7C0E2" fill-rule="nonzero" />
                <path transform="matrix(1 0 0 1 -1063.432 -331.46)"  d="M1070.724 384.782L1070.694 384.76202L1070.7269 384.782L1070.724 384.782z" stroke="none" fill="#B7C0E2" fill-rule="nonzero" />
                <path transform="matrix(1 0 0 1 -1063.384 -331.199)"  d="M1065.495 356.6L1065.477 356.637L1065.495 356.6z" stroke="none" fill="#B7C0E2" fill-rule="nonzero" />
                <path transform="matrix(1 0 0 1 -1063.427 -331.457)"  d="M1070.155 384.4C 1070.214 384.443 1070.275 384.482 1070.334 384.52298C 1070.275 384.482 1070.214 384.443 1070.155 384.4z" stroke="none" fill="#B7C0E2" fill-rule="nonzero" />
                <path transform="matrix(1 0 0 1 -1063.473 -331.466)"  d="M1077.783 385.5L1079.117 394.15L1075.091 386.224L1076.622 385.44L1077.4149 385.34L1077.783 385.5z" stroke="none" fill="#8F9BC1" fill-rule="nonzero" />
                <path transform="matrix(1 0 0 1 -1063.428 -331.138)"  d="M1070.208 351.2C 1071.2792 351.49194 1072.2933 351.96255 1073.208 352.592C 1074.8519 353.73438 1076.2804 355.1591 1077.427 356.80002C 1082.964 364.54202 1081.407 374.22803 1078.473 379.93903C 1077.31 382.2329 1075.1412 383.85086 1072.611 384.312C 1071.9883 384.4249 1071.3557 384.47348 1070.723 384.457C 1072.8354 385.86713 1075.458 386.28525 1077.904 385.60187C 1080.3502 384.91852 1082.3763 383.20175 1083.452 380.901C 1086.531 374.714 1088.317 364.301 1082.909 356.122C 1081.0271 353.277 1077.931 350.213 1074.3091 350.07C 1073.4001 350.0331 1072.4932 350.1811 1071.6431 350.505C 1071.1439 350.6912 1070.6635 350.9239 1070.208 351.2z" stroke="none" fill="#EAF5FF" fill-rule="nonzero" />
                <path transform="matrix(1 0 0 1 -1063.364 -331.148)"  d="M1063.482 364.913C 1063.055 369.95898 1063.7041 375.966 1066.8461 380.672C 1066.999 380.9 1067.154 381.121 1067.3191 381.332C 1067.3383 381.3629 1067.3593 381.39264 1067.3821 381.421C 1067.5171 381.594 1067.6521 381.76797 1067.7881 381.934C 1067.8341 381.99 1067.8811 382.039 1067.9271 382.095C 1068.0461 382.229 1068.1592 382.361 1068.2731 382.486C 1068.342 382.555 1068.405 382.624 1068.473 382.686L1068.473 382.686L1068.7571 382.986C 1068.8451 383.061 1068.925 383.142 1069.0131 383.21698C 1069.1011 383.29196 1069.177 383.365 1069.2521 383.43698C 1069.352 383.516 1069.452 383.602 1069.5521 383.68198C 1069.6182 383.73798 1069.6862 383.79297 1069.7521 383.84198C 1069.863 383.93198 1069.977 384.01498 1070.086 384.09097C 1070.1481 384.13797 1070.206 384.17596 1070.27 384.21698C 1070.383 384.3 1070.505 384.37897 1070.623 384.44998C 1070.634 384.46097 1070.6471 384.465 1070.651 384.473C 1071.2837 384.48947 1071.9163 384.4409 1072.539 384.328C 1071.7021 383.5588 1070.961 382.69156 1070.3319 381.745C 1065.3239 374.255 1066.6569 363.445 1068.569 358.51898C 1069.492 356.1506 1071.0775 354.09814 1073.136 352.607C 1072.2214 351.9775 1071.2072 351.50693 1070.136 351.215L1070.136 351.215L1070.0859 351.242C 1069.818 351.41 1069.5549 351.587 1069.3009 351.781C 1069.2875 351.78647 1069.2753 351.79465 1069.2649 351.805C 1067.9126 352.86258 1066.7803 354.17456 1065.9319 355.667C 1065.9319 355.673 1065.9209 355.67798 1065.9169 355.69098C 1065.7539 355.97397 1065.6029 356.262 1065.4669 356.54697C 1065.4574 356.55722 1065.4512 356.5701 1065.449 356.58395C 1065.3099 356.87494 1065.1799 357.16296 1065.0709 357.44894C 1064.2031 359.85275 1063.6685 362.3641 1063.482 364.913z" stroke="none" fill="#C9E2F4" fill-rule="nonzero" />
                <path transform="matrix(1 0 0 1 -1063.454 -331.591)"  d="M1076.2 398.822C 1076.2 398.822 1074.5819 398.285 1073.471 401.205C 1072.405 404.01202 1073.4733 407.18097 1076.021 408.77C 1078.465 410.302 1080.463 410.306 1080.502 406.491C 1080.5907 403.9368 1079.4065 401.50497 1077.341 400C 1076.8661 399.7115 1076.4733 399.30588 1076.2 398.822z" stroke="none" fill="#F9BF9D" fill-rule="nonzero" />
                <path transform="matrix(1 0 0 1 -1064.54 -332.081)"  d="M1196.542 451.54C 1196.542 451.54 1204.036 466.997 1202.209 469.74002C 1200.382 472.48303 1193.999 463.049 1193.1799 462.50803C 1192.3608 461.96704 1191.4209 464.46204 1190.1849 462.63403C 1188.949 460.80603 1191.719 456.49503 1189.8369 454.12103L1189.8369 454.12103L1196.542 451.54z" stroke="none" fill="#F9BF9D" fill-rule="nonzero" />
                <path transform="matrix(1 0 0 1 -1064.128 -331.651)"  d="M1147.329 405.308L1158.747 413.446L1165.414 445.40402C 1166.7251 447.07388 1166.892 449.37222 1165.8359 451.21402C 1164.928 452.99103 1155.448 454.061 1145.5259 454.47003C 1160.4199 452.92603 1159.6729 445.78702 1156.4579 434.71503C 1153.2429 423.64304 1147.329 405.308 1147.329 405.308z" stroke="none" fill="#FF8A5F" fill-rule="nonzero" />
                <path transform="matrix(1 0 0 1 -1063.618 -331.562)"  d="M1090.679 426.736C 1090.934 426.936 1097.414 431.866 1101.631 425.918C 1105.931 419.85 1115.791 395.707 1115.791 395.707L1115.791 395.707L1116.025 415.083C 1116.025 415.083 1106.435 428.78302 1100.416 432.154C 1098.237 433.375 1094.527 430.672 1090.679 426.736z" stroke="none" fill="#FF8A5F" fill-rule="nonzero" />
                <path transform="matrix(1 0 0 1 -1063.93 -331.386)"  d="M1124.26 380.176L1124.646 382.544C 1130.821 382.544 1133.579 376.75 1133.579 376.75C 1131.1648 379.2645 1127.7279 380.52805 1124.26 380.176z" stroke="none" fill="#1D164D" fill-rule="nonzero" />
			</g>
		</g>
	</g>
</g>
</svg>